<svg width="224" height="76" viewBox="0 0 224 76" fill="none" xmlns="http://www.w3.org/2000/svg">
<mask id="mask0_326_3" style="mask-type:luminance" maskUnits="userSpaceOnUse" x="7" y="7" width="200" height="61">
<path d="M7 7.69263H207V67.6926H7V7.69263Z" fill="white"/>
</mask>
<g mask="url(#mask0_326_3)">
<mask id="mask1_326_3" style="mask-type:luminance" maskUnits="userSpaceOnUse" x="7" y="7" width="200" height="61">
<path fill-rule="evenodd" clip-rule="evenodd" d="M7.00513 21.1458C7.00513 13.7187 12.9895 7.69263 20.3697 7.69263H71.1145C78.4999 7.69263 84.4843 13.7187 84.4843 21.1458C84.4843 28.5728 78.4999 34.5989 71.1145 34.5989H51.276C49.578 34.5989 48.1978 35.9843 48.1978 37.6926C48.1978 39.401 49.578 40.7916 51.276 40.7916H193.333C200.719 40.7916 206.703 46.8124 206.703 54.2395C206.703 61.6718 200.719 67.6926 193.333 67.6926H20.3697C12.9895 67.6926 7.00513 61.6718 7.00513 54.2395C7.00513 46.8124 12.9895 40.7916 20.3697 40.7916H40.2135C41.9114 40.7916 43.2864 39.401 43.2864 37.6926C43.2864 35.9843 41.9114 34.5989 40.2135 34.5989H20.3697C12.9895 34.5989 7.00513 28.5728 7.00513 21.1458ZM86.1978 60.052C85.2603 60.052 84.526 59.9166 83.9999 59.651C83.4687 59.3853 83.1041 58.9843 82.8905 58.4478C82.6822 57.9166 82.5728 57.2551 82.5728 56.4687V52.0051C82.5728 50.7239 82.8593 49.7812 83.427 49.1718C83.9947 48.5676 84.9166 48.2655 86.1978 48.2655H92.151C93.0624 48.2655 93.7551 48.3124 94.2395 48.4114C94.7187 48.5155 94.9635 48.6197 94.9635 48.7239L94.5676 50.3853C94.3437 50.3437 93.677 50.302 92.578 50.2551C91.4791 50.2083 89.8801 50.1822 87.7812 50.1822H86.7708C85.7187 50.1822 85.1874 50.6562 85.1874 51.6041V56.7083C85.1874 57.1614 85.302 57.5103 85.5364 57.7551C85.7655 58.0051 86.177 58.1249 86.7708 58.1249H87.5833C89.7708 58.1249 91.4739 58.1041 92.677 58.0572C93.8853 58.0103 94.6353 57.9635 94.9218 57.9062L95.7343 59.2291C95.7343 59.2916 95.6249 59.3958 95.4114 59.526C95.1926 59.6614 94.7916 59.7812 94.2135 59.8853C93.6301 59.9947 92.7968 60.0468 91.703 60.0468H86.1978V60.052ZM42.0728 60.052V49.8853L41.8749 48.2655H50.6405C51.4843 48.2655 52.1458 48.3801 52.6301 48.6041C53.1093 48.8333 53.4687 49.1301 53.6978 49.4947C53.927 49.8645 54.078 50.2551 54.1405 50.6666C54.2083 51.0833 54.2395 51.4739 54.2395 51.8489V53.0312C54.2395 53.3333 54.1978 53.6822 54.1041 54.0572C54.0103 54.4374 53.8385 54.8072 53.5885 55.1614C53.3385 55.5103 52.9739 55.8072 52.4999 56.0416C52.026 56.2708 51.4062 56.3905 50.6405 56.3905H48.6249C47.7916 56.3905 47.0155 56.3697 46.2968 56.328C45.578 56.2916 45.0416 56.2551 44.6874 56.2291V60.052H42.0728ZM44.6822 54.4687H50.0676C50.6614 54.4687 51.0676 54.3176 51.2916 54.026C51.5155 53.7343 51.6301 53.3801 51.6301 52.9687V51.703C51.6301 51.276 51.5155 50.9166 51.2916 50.6249C51.0676 50.3333 50.6666 50.1822 50.0885 50.1822H44.6822V54.4687ZM23.1978 60.052C22.302 60.052 21.6405 60.0103 21.2187 59.9322C20.7968 59.8489 20.5833 59.7551 20.5833 59.651L21.3749 57.9114C21.677 57.9635 22.4322 58.0103 23.6405 58.0624C24.8489 58.1093 26.5051 58.1301 28.6197 58.1301H28.9947C29.5624 58.1301 29.9635 58.026 30.1978 57.8228C30.4374 57.6145 30.5572 57.2655 30.5572 56.7708V56.3697C30.5572 55.901 30.4583 55.5676 30.2708 55.3697C30.078 55.1666 29.651 55.0676 28.9947 55.0676H24.401C23.0728 55.0676 22.1041 54.8176 21.4947 54.3176C20.8853 53.8176 20.5833 52.9999 20.5833 51.8645V51.5468C20.5833 50.9583 20.6926 50.4218 20.9114 49.927C21.1249 49.4322 21.4999 49.0364 22.026 48.7343C22.5572 48.4374 23.2812 48.2864 24.203 48.2864H29.5885C30.4843 48.2864 31.2083 48.3333 31.7603 48.427C32.3176 48.5155 32.5937 48.6197 32.5937 48.7239L32.1978 50.4062C31.8541 50.3645 31.078 50.3228 29.8645 50.276C28.651 50.2291 27.0208 50.2083 24.9739 50.2083L24.7603 50.1874C24.151 50.1874 23.7447 50.3124 23.5312 50.5572C23.3228 50.802 23.2083 51.1145 23.1978 51.4843V51.828C23.1978 52.2655 23.3176 52.5989 23.5624 52.8176C23.8072 53.0364 24.2135 53.1458 24.7812 53.1458H29.1718C30.0155 53.1458 30.7343 53.2343 31.328 53.4062C31.9218 53.5833 32.3749 53.8958 32.6926 54.3593C33.0103 54.8176 33.1666 55.4947 33.1666 56.3905V56.7083C33.1666 57.7083 32.9114 58.5155 32.4062 59.1301C31.8958 59.7395 31.0155 60.052 29.7655 60.052H23.1978ZM65.9739 48.2864L60.177 60.052H63.0624L64.3489 57.5103H71.4322L72.6041 60.052H75.651L69.8697 48.2864H65.9739ZM70.703 55.5468H65.0676L67.7968 50.0885H67.9947L70.703 55.5468ZM103.646 48.2864V60.052H114.448C115.323 60.052 115.937 60.026 116.292 59.9791C116.646 59.9322 116.823 59.8853 116.823 59.828L116.031 58.1301H106.26V54.9478H113.656V52.9687H106.26V50.203H115.953V48.2864H103.646ZM128.713 60.052L128.698 50.1874H123.552V48.2655H136.49V50.1874H131.328V60.052H128.713ZM144.406 48.2864V60.052H147.016V48.2864H144.406ZM156.318 60.052V49.8853L156.12 48.2864H159.125L163.599 56.2916L168.229 48.2864H170.896V60.052H168.286V52.5885H168.068L167.297 54.328L164.807 58.8541H162.411L159.917 54.328L159.125 52.5885H158.927V60.052H156.318ZM180 48.2864V60.052H190.802C191.677 60.052 192.286 60.026 192.646 59.9791C193 59.9322 193.177 59.8853 193.177 59.828L192.385 58.1301H182.609V54.9478H190.01V52.9687H182.609V50.203H192.307V48.2864H180ZM24.3489 17.9843V20.8333L20.578 22.3645L24.3489 23.901V26.7499L16.9895 23.828H16.9791V20.9114H16.9895L24.3489 17.9843ZM67.1926 26.5989V23.7551L70.9583 22.2239L67.1926 20.6926V17.8489L74.5364 20.7708H74.5572V23.6926H74.5364L67.1926 26.5989ZM64.0416 13.828L59.7187 28.6458H62.2864L66.6041 13.828H64.0416ZM36.2239 20.5937C36.2655 19.4322 35.8853 18.302 35.1562 17.4478C34.7916 17.0416 34.3541 16.7239 33.8697 16.5155C33.3853 16.3072 32.8645 16.2135 32.3385 16.2343C31.776 16.2083 31.2187 16.3072 30.6926 16.5208C30.1666 16.7343 29.6874 17.0624 29.2864 17.4791V16.5416H26.7239V26.9062H29.2864V22.3176C29.2864 19.9322 30.0885 18.7447 31.6926 18.7447C31.9635 18.7343 32.2343 18.7864 32.4791 18.901C32.7239 19.0155 32.9478 19.1874 33.1197 19.4062C33.4947 19.9062 33.6874 20.5364 33.6562 21.1718V26.9062H36.2239V20.5937ZM39.4843 12.2343V27.052H42.052V12.2343H39.4843ZM54.4062 26.5051H56.5416L60.1405 16.1249H57.401L55.3801 22.3541L53.2968 16.1249H51.2968L49.2187 22.3333L47.1978 16.1249H44.4583L48.052 26.5051H50.1874L52.3072 20.401L54.4062 26.5051Z" fill="white"/>
</mask>
<g mask="url(#mask1_326_3)">
<path d="M7.00513 7.69263V67.6926H206.703V7.69263H7.00513Z" fill="url(#paint0_linear_326_3)"/>
</g>
</g>
<mask id="mask2_326_3" style="mask-type:luminance" maskUnits="userSpaceOnUse" x="0" y="40" width="224" height="36">
<path d="M0.651123 40.2449H223.448V75.8907H0.651123V40.2449Z" fill="white"/>
</mask>
<g mask="url(#mask2_326_3)">
<mask id="mask3_326_3" style="mask-type:luminance" maskUnits="userSpaceOnUse" x="0" y="40" width="224" height="37">
<path d="M18.5886 40.2449H205.589C215.495 40.2449 223.526 48.2761 223.526 58.1824C223.526 68.0886 215.495 76.1199 205.589 76.1199H18.5886C8.68237 76.1199 0.651123 68.0886 0.651123 58.1824C0.651123 48.2761 8.68237 40.2449 18.5886 40.2449Z" fill="white"/>
</mask>
<g mask="url(#mask3_326_3)">
<path d="M0.651123 40.2449V75.8907H223.448V40.2449H0.651123Z" fill="url(#paint1_linear_326_3)"/>
</g>
</g>
<mask id="mask4_326_3" style="mask-type:luminance" maskUnits="userSpaceOnUse" x="1" y="0" width="106" height="38">
<path d="M1.65112 0.723877H106.615V37.9999H1.65112V0.723877Z" fill="white"/>
</mask>
<g mask="url(#mask4_326_3)">
<mask id="mask5_326_3" style="mask-type:luminance" maskUnits="userSpaceOnUse" x="1" y="0" width="106" height="38">
<path d="M20.0782 0.723877H87.7345C97.9115 0.723877 106.156 8.97388 106.156 19.151C106.156 29.3228 97.9115 37.5728 87.7345 37.5728H20.0782C9.90112 37.5728 1.65112 29.3228 1.65112 19.151C1.65112 8.97388 9.90112 0.723877 20.0782 0.723877Z" fill="white"/>
</mask>
<g mask="url(#mask5_326_3)">
<path d="M1.65112 0.723877H106.615V37.3645H1.65112V0.723877Z" fill="#8C52FF"/>
</g>
</g>
<path d="M26.9263 62.9176C26.9263 62.1676 26.6606 61.5946 26.1346 61.1884C25.6034 60.7874 24.645 60.3655 23.2596 59.9176C21.8846 59.4592 20.7909 59.0165 19.9888 58.5842C17.8065 57.4071 16.7179 55.8082 16.7179 53.7926C16.7179 52.7509 17.0096 51.8238 17.5929 51.0009C18.1763 50.1832 19.0148 49.5426 20.1138 49.0842C21.2231 48.6259 22.4679 48.3967 23.8429 48.3967C25.2179 48.3967 26.4367 48.6467 27.5096 49.1467C28.5929 49.6467 29.4315 50.3551 30.0304 51.2717C30.6242 52.178 30.9263 53.2092 30.9263 54.3759H26.9471C26.9471 53.4905 26.6659 52.803 26.1138 52.3134C25.5565 51.8134 24.77 51.5634 23.7596 51.5634C22.7856 51.5634 22.0304 51.7717 21.4888 52.1884C20.9575 52.6051 20.6971 53.1467 20.6971 53.8134C20.6971 54.4384 21.0096 54.9696 21.6346 55.3967C22.27 55.8134 23.2023 56.2092 24.4263 56.5842C26.6867 57.2665 28.3325 58.1155 29.3638 59.1259C30.4054 60.1259 30.9263 61.3759 30.9263 62.8759C30.9263 64.5582 30.2909 65.8759 29.0304 66.8342C27.7648 67.7821 26.0617 68.2509 23.9263 68.2509C22.4367 68.2509 21.0825 67.9801 19.8638 67.4384C18.6398 66.8863 17.7075 66.1363 17.0721 65.1884C16.4315 64.2457 16.1138 63.1467 16.1138 61.8967H20.1138C20.1138 64.0374 21.3846 65.1051 23.9263 65.1051C24.869 65.1051 25.6034 64.9124 26.1346 64.5217C26.6606 64.1363 26.9263 63.5999 26.9263 62.9176Z" fill="white"/>
<path d="M38.9938 61.1675V67.98H35.0146V48.6675H42.5355C43.9938 48.6675 45.2699 48.9331 46.3688 49.4591C47.4626 49.9904 48.3115 50.7456 48.9105 51.73C49.5042 52.7039 49.8063 53.8133 49.8063 55.0633C49.8063 56.9539 49.1501 58.4487 47.848 59.5425C46.5563 60.6258 44.7646 61.1675 42.473 61.1675H38.9938ZM38.9938 57.9591H42.5355C43.5876 57.9591 44.3949 57.7091 44.9521 57.2091C45.5042 56.7091 45.7855 56.0008 45.7855 55.0841C45.7855 54.1414 45.5042 53.3758 44.9521 52.7925C44.3949 52.2091 43.624 51.9123 42.6396 51.8966H38.9938V57.9591Z" fill="white"/>
<path d="M65.5505 59.605H57.9047V64.7925H66.863V67.98H53.9255V48.6675H66.8422V51.8966H57.9047V56.5008H65.5505V59.605Z" fill="white"/>
<path d="M82.2195 59.605H74.5736V64.7925H83.532V67.98H70.5945V48.6675H83.5111V51.8966H74.5736V56.5008H82.2195V59.605Z" fill="white"/>
<path d="M102.43 61.5426C102.274 63.6259 101.503 65.2665 100.118 66.4592C98.7271 67.6571 96.8989 68.2509 94.6385 68.2509C92.1646 68.2509 90.2218 67.4176 88.8052 65.7509C87.3885 64.0842 86.6802 61.7926 86.6802 58.8759V57.7092C86.6802 55.8499 87.0031 54.2092 87.6593 52.7926C88.3104 51.3759 89.2427 50.2926 90.451 49.5426C91.6698 48.7821 93.0864 48.3967 94.701 48.3967C96.9198 48.3967 98.7114 48.9957 100.076 50.1884C101.451 51.3863 102.243 53.0582 102.451 55.2092H98.4718C98.3729 53.9749 98.0239 53.079 97.4302 52.5217C96.8312 51.954 95.9198 51.6676 94.701 51.6676C93.3677 51.6676 92.3729 52.1467 91.7218 53.1051C91.0656 54.053 90.7271 55.5217 90.701 57.5217V58.9801C90.701 61.0634 91.0135 62.5946 91.6385 63.5634C92.2739 64.5217 93.2739 65.0009 94.6385 65.0009C95.8729 65.0009 96.7896 64.7249 97.3885 64.1676C97.9979 63.5999 98.3521 62.7249 98.451 61.5426H102.43Z" fill="white"/>
<path d="M122.135 67.98H118.155V59.7091H110.405V67.98H106.426V48.6675H110.405V56.5008H118.155V48.6675H122.135V67.98Z" fill="white"/>
<path d="M11.2387 19.7826L18.7804 22.4493V26.1576L7.38452 21.3243V18.1993L18.7804 13.366V17.0743L11.2387 19.7826Z" fill="white"/>
<path d="M23.5684 27.9701V8.69922H29.485C31.1777 8.69922 32.6934 9.08464 34.0267 9.84505C35.3704 10.6107 36.4225 11.6992 37.1725 13.1159C37.9225 14.5221 38.2975 16.1159 38.2975 17.9076V18.7826C38.2975 20.5742 37.9277 22.1732 37.1934 23.5742C36.4538 24.9648 35.4121 26.043 34.0684 26.8034C32.7194 27.569 31.2038 27.9596 29.5267 27.9701H23.5684ZM27.5267 11.9076V24.7826H29.4434C30.9954 24.7826 32.1829 24.2773 33.0059 23.2617C33.8236 22.2513 34.2454 20.7982 34.2767 18.9076V17.8867C34.2767 15.9284 33.8652 14.444 33.0475 13.4284C32.2402 12.418 31.0527 11.9076 29.485 11.9076H27.5267Z" fill="white"/>
<path d="M54.137 19.6159H46.512V24.7826H55.4704V27.9701H42.5537V8.69922H55.4287V11.9076H46.512V16.5117H54.137V19.6159Z" fill="white"/>
<path d="M66.2759 23.1992L70.6509 8.69922H75.0675L68.3592 27.9701H64.2134L57.5259 8.69922H61.9425L66.2759 23.1992Z" fill="white"/>
<path d="M79.2003 29.6159H76.3669L83.4503 8.69922H86.3044L79.2003 29.6159Z" fill="white"/>
<path d="M97.3042 19.7617L89.6167 17.0742V13.3867L101.158 18.2201V21.3242L89.6167 26.1784V22.4701L97.3042 19.7617Z" fill="white"/>
<path d="M147.276 58.1094C147.521 57.3021 147.766 56.4948 148.016 55.6875C148.26 56.4948 148.505 57.3073 148.755 58.1146C148.505 58.9063 148.26 59.6927 148.016 60.4844C147.766 59.6927 147.521 58.901 147.276 58.1094Z" fill="white"/>
<path d="M148.016 60.4844C147.844 60.4844 147.708 60.349 147.708 60.1823V55.9896C147.708 55.8229 147.844 55.6875 148.016 55.6875C148.182 55.6875 148.323 55.8229 148.323 55.9896V60.1823C148.323 60.349 148.182 60.4844 148.016 60.4844Z" fill="white"/>
<path d="M149.688 58.1197C149.932 56.9322 150.182 55.7447 150.427 54.552C150.672 55.7447 150.922 56.9374 151.167 58.1301C150.922 59.2916 150.672 60.453 150.427 61.6145C150.182 60.4478 149.938 59.2864 149.688 58.1197Z" fill="white"/>
<path d="M150.427 61.6145C150.26 61.6145 150.12 61.4791 150.12 61.3124V54.8593C150.12 54.6926 150.26 54.552 150.427 54.552C150.599 54.552 150.734 54.6926 150.734 54.8593V61.3124C150.734 61.4791 150.599 61.6145 150.427 61.6145Z" fill="white"/>
<path d="M152.104 58.1355C152.349 56.4115 152.594 54.6876 152.844 52.9636C153.089 54.6928 153.333 56.4167 153.583 58.1511C153.333 59.8334 153.089 61.5209 152.844 63.2084C152.594 61.5157 152.349 59.8282 152.104 58.1355Z" fill="white"/>
<path d="M152.844 63.2084C152.672 63.2084 152.536 63.073 152.536 62.9063V53.2657C152.536 53.099 152.672 52.9636 152.844 52.9636C153.01 52.9636 153.151 53.099 153.151 53.2657V62.9063C153.151 63.073 153.01 63.2084 152.844 63.2084Z" fill="white"/>
<path d="M164.177 58.1093C164.422 57.2603 164.667 56.4062 164.917 55.552C165.161 56.4062 165.406 57.2603 165.656 58.1145C165.406 58.953 165.161 59.7864 164.917 60.6197C164.667 59.7812 164.422 58.9478 164.177 58.1093Z" fill="white"/>
<path d="M164.917 60.6197C164.745 60.6197 164.609 60.4791 164.609 60.3124V55.8541C164.609 55.6874 164.745 55.552 164.917 55.552C165.083 55.552 165.224 55.6874 165.224 55.8541V60.3124C165.224 60.4843 165.083 60.6197 164.917 60.6197Z" fill="white"/>
<path d="M166.589 58.2083C166.839 53.9687 167.083 49.7291 167.328 45.4895C167.578 49.7395 167.823 53.9895 168.068 58.2395C167.823 62.3853 167.578 66.5364 167.328 70.6822C167.083 66.526 166.839 62.3645 166.589 58.2083Z" fill="white"/>
<path d="M167.354 70.6822C167.188 70.6822 167.047 70.5468 167.047 70.3801V45.7916C167.047 45.6249 167.188 45.4895 167.354 45.4895C167.526 45.4895 167.661 45.6249 167.661 45.7916V70.3801C167.661 70.5468 167.526 70.6822 167.354 70.6822Z" fill="white"/>
<path d="M154.516 58.1562C154.766 55.7603 155.01 53.3697 155.255 50.9739C155.505 53.3749 155.75 55.776 155.995 58.1718C155.75 60.5155 155.505 62.8541 155.255 65.1978C155.01 62.8489 154.766 60.4999 154.516 58.1562Z" fill="white"/>
<path d="M155.255 65.1978C155.089 65.1978 154.948 65.0624 154.948 64.8958V51.276C154.948 51.1093 155.089 50.9739 155.255 50.9739C155.427 50.9739 155.563 51.1093 155.563 51.276V64.8958C155.563 65.0624 155.427 65.1978 155.255 65.1978Z" fill="white"/>
<path d="M161.76 58.1355C162.005 56.4949 162.255 54.8542 162.5 53.2136C162.745 54.8542 162.995 56.5001 163.24 58.1459C162.995 59.7501 162.745 61.3542 162.5 62.9584C162.255 61.349 162.005 59.7397 161.76 58.1355Z" fill="white"/>
<path d="M162.5 62.9584C162.333 62.9584 162.193 62.823 162.193 62.6563V53.5157C162.193 53.349 162.333 53.2136 162.5 53.2136C162.672 53.2136 162.807 53.349 162.807 53.5157V62.6563C162.807 62.823 162.672 62.9584 162.5 62.9584Z" fill="white"/>
<path d="M156.932 58.1667C157.177 55.3178 157.427 52.4688 157.672 49.6199C157.917 52.474 158.167 55.3334 158.412 58.1928C158.167 60.9792 157.917 63.7657 157.672 66.5522C157.427 63.7605 157.177 60.9636 156.932 58.1667Z" fill="white"/>
<path d="M157.672 66.552C157.5 66.552 157.365 66.4166 157.365 66.2499V49.9218C157.365 49.7551 157.5 49.6145 157.672 49.6145C157.844 49.6145 157.979 49.7551 157.979 49.9218V66.2499C157.979 66.4166 157.844 66.552 157.672 66.552Z" fill="white"/>
<path d="M159.344 58.1405C159.594 56.2083 159.839 54.2708 160.083 52.3333C160.333 54.276 160.578 56.2135 160.823 58.1562C160.578 60.052 160.333 61.9426 160.083 63.8385C159.839 61.9374 159.594 60.0416 159.344 58.1405Z" fill="white"/>
<path d="M160.115 63.8385C159.943 63.8385 159.807 63.6978 159.807 63.5312V52.6353C159.807 52.4687 159.943 52.3333 160.115 52.3333C160.287 52.3333 160.422 52.4687 160.422 52.6353V63.5312C160.422 63.6978 160.287 63.8385 160.115 63.8385Z" fill="white"/>
<path d="M169.005 58.177C169.25 55.1041 169.5 52.0312 169.745 48.9583C169.99 52.0416 170.24 55.1197 170.484 58.1978C170.24 61.203 169.99 64.2083 169.745 67.2135C169.5 64.1978 169.25 61.1874 169.005 58.177Z" fill="white"/>
<path d="M169.745 67.2083C169.573 67.2083 169.438 67.0728 169.438 66.9062V49.2655C169.438 49.0937 169.573 48.9583 169.745 48.9583C169.917 48.9583 170.052 49.0937 170.052 49.2655V66.9062C170.052 67.0728 169.917 67.2083 169.745 67.2083Z" fill="white"/>
<path d="M185.906 58.1355C186.151 56.4949 186.401 54.8542 186.646 53.2136C186.891 54.8542 187.141 56.5001 187.385 58.1459C187.141 59.7501 186.891 61.3542 186.646 62.9584C186.401 61.349 186.151 59.7397 185.906 58.1355Z" fill="white"/>
<path d="M186.646 62.9584C186.474 62.9584 186.339 62.823 186.339 62.6563V53.5157C186.339 53.349 186.474 53.2136 186.646 53.2136C186.818 53.2136 186.953 53.349 186.953 53.5157V62.6563C186.953 62.823 186.818 62.9584 186.646 62.9584Z" fill="white"/>
<path d="M188.323 58.1199C188.568 57.0053 188.813 55.8907 189.063 54.7761C189.307 55.8907 189.552 57.0105 189.802 58.1251C189.552 59.2188 189.307 60.3074 189.063 61.3959C188.813 60.3022 188.568 59.2084 188.323 58.1199Z" fill="white"/>
<path d="M189.089 61.3959C188.917 61.3959 188.781 61.2605 188.781 61.0938V55.0782C188.781 54.9115 188.917 54.7761 189.089 54.7761C189.255 54.7761 189.396 54.9115 189.396 55.0782V61.0938C189.396 61.2605 189.255 61.3959 189.089 61.3959Z" fill="white"/>
<path d="M190.734 58.1094C190.984 57.3021 191.229 56.4948 191.474 55.6875C191.724 56.4948 191.969 57.3073 192.214 58.1146C191.969 58.9063 191.724 59.6927 191.474 60.4844C191.229 59.6927 190.984 58.901 190.734 58.1094Z" fill="white"/>
<path d="M191.474 60.4844C191.307 60.4844 191.167 60.349 191.167 60.1823V55.9896C191.167 55.8229 191.307 55.6875 191.474 55.6875C191.646 55.6875 191.781 55.8229 191.781 55.9896V60.1823C191.781 60.349 191.646 60.4844 191.474 60.4844Z" fill="white"/>
<path d="M193.151 58.1042C193.396 57.4844 193.646 56.8698 193.891 56.25C194.135 56.8698 194.385 57.4896 194.63 58.1094C194.385 58.7135 194.135 59.3177 193.891 59.9219C193.646 59.3125 193.396 58.7083 193.151 58.1042Z" fill="white"/>
<path d="M193.891 59.9219C193.719 59.9219 193.583 59.7813 193.583 59.6146V56.5521C193.583 56.3854 193.719 56.25 193.891 56.25C194.057 56.25 194.198 56.3854 194.198 56.5521V59.6146C194.198 59.7865 194.057 59.9219 193.891 59.9219Z" fill="white"/>
<path d="M195.562 58.099C195.813 57.6772 196.057 57.2605 196.302 56.8386C196.552 57.2605 196.797 57.6824 197.042 58.099C196.797 58.5105 196.552 58.922 196.302 59.3334C196.057 58.922 195.813 58.5105 195.562 58.099Z" fill="white"/>
<path d="M196.328 59.3334C196.161 59.3334 196.021 59.198 196.021 59.0261V57.1407C196.021 56.974 196.161 56.8386 196.328 56.8386C196.5 56.8386 196.635 56.974 196.635 57.1407V59.0261C196.635 59.198 196.5 59.3334 196.328 59.3334Z" fill="white"/>
<path d="M197.979 58.0938C198.224 57.7917 198.474 57.4845 198.719 57.1824C198.964 57.4845 199.214 57.7917 199.458 58.099C199.214 58.3959 198.964 58.6928 198.719 58.9897C198.474 58.6876 198.224 58.3907 197.979 58.0938Z" fill="white"/>
<path d="M198.719 58.9897C198.547 58.9897 198.411 58.8542 198.411 58.6824V57.4845C198.411 57.3178 198.547 57.1824 198.719 57.1824C198.891 57.1824 199.026 57.3178 199.026 57.4845V58.6876C199.026 58.8542 198.891 58.9897 198.719 58.9897Z" fill="white"/>
<path d="M200.396 58.0886C200.641 57.9011 200.885 57.7136 201.135 57.5261C201.38 57.7136 201.625 57.9011 201.875 58.0938C201.625 58.2761 201.38 58.4584 201.135 58.6459C200.885 58.4584 200.641 58.2761 200.396 58.0886Z" fill="white"/>
<path d="M201.135 58.6459C200.964 58.6459 200.828 58.5105 200.828 58.3386V57.8282C200.828 57.6615 200.964 57.5261 201.135 57.5261C201.302 57.5261 201.443 57.6615 201.443 57.8282V58.3386C201.443 58.5105 201.302 58.6459 201.135 58.6459Z" fill="white"/>
<path d="M202.807 58.0885C203.052 57.9635 203.302 57.8333 203.547 57.7031C203.792 57.8333 204.042 57.9635 204.287 58.0885C204.042 58.2135 203.792 58.3385 203.547 58.4635C203.302 58.3385 203.057 58.2135 202.807 58.0885Z" fill="white"/>
<path d="M203.573 58.4635C203.406 58.4635 203.266 58.3281 203.266 58.1615V58.0104C203.266 57.8438 203.406 57.7031 203.573 57.7031C203.745 57.7031 203.88 57.8438 203.88 58.0104V58.1615C203.88 58.3281 203.745 58.4635 203.573 58.4635Z" fill="white"/>
<mask id="mask6_326_3" style="mask-type:luminance" maskUnits="userSpaceOnUse" x="204" y="56" width="4" height="4">
<path d="M204 56.6667H207.203V59.3334H204V56.6667Z" fill="white"/>
</mask>
<g mask="url(#mask6_326_3)">
<path d="M205.224 58.0885C205.469 57.9948 205.719 57.901 205.963 57.8125C206.208 57.901 206.458 57.9948 206.703 58.0885C206.458 58.1771 206.208 58.2708 205.963 58.3594C205.713 58.2708 205.469 58.1771 205.224 58.0885Z" fill="white"/>
</g>
<path d="M205.99 58.3594H205.932C205.781 58.3594 205.656 58.2396 205.656 58.0833C205.656 57.9323 205.781 57.8125 205.932 57.8125H205.99C206.146 57.8125 206.271 57.9323 206.271 58.0833C206.271 58.2396 206.146 58.3594 205.99 58.3594Z" fill="white"/>
<path d="M146.339 58.1042C146.094 57.4844 145.844 56.8698 145.599 56.25C145.354 56.8698 145.104 57.4896 144.859 58.1094C145.104 58.7135 145.354 59.3177 145.599 59.9219C145.844 59.3125 146.094 58.7083 146.339 58.1042Z" fill="white"/>
<path d="M145.599 59.9219C145.771 59.9219 145.906 59.7813 145.906 59.6146V56.5521C145.906 56.3854 145.771 56.25 145.599 56.25C145.427 56.25 145.292 56.3854 145.292 56.5521V59.6146C145.292 59.7865 145.427 59.9219 145.599 59.9219Z" fill="white"/>
<path d="M143.927 58.099C143.677 57.6772 143.432 57.2605 143.182 56.8386C142.937 57.2605 142.693 57.6824 142.443 58.099C142.693 58.5105 142.937 58.922 143.182 59.3334C143.432 58.922 143.677 58.5105 143.927 58.099Z" fill="white"/>
<path d="M143.156 59.3334C143.328 59.3334 143.469 59.198 143.469 59.0261V57.1407C143.469 56.974 143.328 56.8386 143.156 56.8386C142.99 56.8386 142.849 56.974 142.849 57.1407V59.0261C142.849 59.198 142.99 59.3334 143.156 59.3334Z" fill="white"/>
<path d="M141.51 58.0938C141.266 57.7917 141.016 57.4845 140.771 57.1824C140.526 57.4845 140.276 57.7917 140.031 58.099C140.276 58.3959 140.526 58.6928 140.771 58.9897C141.016 58.6876 141.266 58.3907 141.51 58.0938Z" fill="white"/>
<path d="M140.771 58.9897C140.938 58.9897 141.078 58.8542 141.078 58.6824V57.4845C141.078 57.3178 140.938 57.1824 140.771 57.1824C140.599 57.1824 140.464 57.3178 140.464 57.4845V58.6876C140.464 58.8542 140.599 58.9897 140.771 58.9897Z" fill="white"/>
<path d="M139.094 58.0886C138.849 57.9011 138.604 57.7136 138.354 57.5261C138.109 57.7136 137.865 57.9063 137.615 58.0938C137.865 58.2761 138.109 58.4584 138.354 58.6459C138.604 58.4584 138.849 58.2761 139.094 58.0886Z" fill="white"/>
<path d="M138.354 58.6459C138.526 58.6459 138.661 58.5105 138.661 58.3386V57.8282C138.661 57.6615 138.526 57.5261 138.354 57.5261C138.188 57.5261 138.047 57.6615 138.047 57.8282V58.3386C138.047 58.5105 138.188 58.6459 138.354 58.6459Z" fill="white"/>
<path d="M136.682 58.0885C136.432 57.9635 136.188 57.8333 135.943 57.7031C135.693 57.8333 135.448 57.9635 135.203 58.0885C135.448 58.2135 135.693 58.3385 135.943 58.4635C136.188 58.3385 136.432 58.2135 136.682 58.0885Z" fill="white"/>
<path d="M135.917 58.4635C136.083 58.4635 136.224 58.3281 136.224 58.1615V58.0104C136.224 57.8438 136.083 57.7031 135.917 57.7031C135.745 57.7031 135.609 57.8438 135.609 58.0104V58.1615C135.609 58.3281 135.745 58.4635 135.917 58.4635Z" fill="white"/>
<mask id="mask7_326_3" style="mask-type:luminance" maskUnits="userSpaceOnUse" x="132" y="56" width="3" height="4">
<path d="M132.203 56.6667H134.667V59.3334H132.203V56.6667Z" fill="white"/>
</mask>
<g mask="url(#mask7_326_3)">
<path d="M134.266 58.0885C134.021 57.9948 133.771 57.901 133.526 57.8125C133.281 57.901 133.031 57.9948 132.786 58.0885C133.031 58.1771 133.281 58.2708 133.526 58.3594C133.771 58.2708 134.021 58.1771 134.266 58.0885Z" fill="white"/>
<path d="M133.5 58.3594H133.557C133.708 58.3594 133.833 58.2396 133.833 58.0833C133.833 57.9323 133.708 57.8125 133.557 57.8125H133.5C133.344 57.8125 133.219 57.9323 133.219 58.0833C133.219 58.2396 133.344 58.3594 133.5 58.3594Z" fill="white"/>
</g>
<path d="M171.417 58.2188C171.667 53.698 171.912 49.172 172.156 44.6511C172.406 49.1876 172.651 53.7188 172.896 58.2501C172.651 62.672 172.406 67.0938 172.156 71.5157C171.912 67.0834 171.667 62.6511 171.417 58.2188Z" fill="white"/>
<path d="M172.156 71.5157C171.99 71.5157 171.849 71.3803 171.849 71.2136V44.9584C171.849 44.7917 171.99 44.6511 172.156 44.6511C172.328 44.6511 172.469 44.7917 172.469 44.9584V71.2136C172.469 71.3803 172.328 71.5157 172.156 71.5157Z" fill="white"/>
<path d="M173.833 58.1094C174.078 57.2135 174.328 56.3177 174.573 55.4219C174.818 56.3229 175.068 57.2187 175.312 58.1198C175.068 58.9948 174.818 59.8698 174.573 60.75C174.328 59.8698 174.078 58.9896 173.833 58.1094Z" fill="white"/>
<path d="M174.573 60.75C174.406 60.75 174.266 60.6094 174.266 60.4427V55.724C174.266 55.5573 174.406 55.4219 174.573 55.4219C174.745 55.4219 174.88 55.5573 174.88 55.724V60.4427C174.88 60.6146 174.745 60.75 174.573 60.75Z" fill="white"/>
<path d="M176.25 58.1355C176.495 56.4949 176.74 54.8542 176.99 53.2136C177.234 54.8542 177.479 56.5001 177.729 58.1459C177.479 59.7501 177.234 61.3542 176.99 62.9584C176.74 61.349 176.495 59.7397 176.25 58.1355Z" fill="white"/>
<path d="M176.99 62.9584C176.818 62.9584 176.682 62.823 176.682 62.6563V53.5157C176.682 53.349 176.818 53.2136 176.99 53.2136C177.156 53.2136 177.297 53.349 177.297 53.5157V62.6563C177.297 62.823 177.156 62.9584 176.99 62.9584Z" fill="white"/>
<path d="M183.49 58.1562C183.74 55.7603 183.984 53.3697 184.234 50.9739C184.479 53.3749 184.724 55.776 184.974 58.1718C184.724 60.5155 184.479 62.8541 184.234 65.1978C183.984 62.8489 183.74 60.4999 183.49 58.1562Z" fill="white"/>
<path d="M184.234 65.1978C184.063 65.1978 183.922 65.0624 183.922 64.8958V51.276C183.922 51.1093 184.063 50.9739 184.234 50.9739C184.401 50.9739 184.542 51.1093 184.542 51.276V64.8958C184.542 65.0624 184.401 65.1978 184.234 65.1978Z" fill="white"/>
<path d="M178.661 58.1667C178.911 55.3178 179.156 52.4688 179.401 49.6199C179.651 52.474 179.896 55.3334 180.141 58.1928C179.896 60.9792 179.651 63.7657 179.401 66.5522C179.156 63.7605 178.911 60.9636 178.661 58.1667Z" fill="white"/>
<path d="M179.401 66.552C179.234 66.552 179.094 66.4166 179.094 66.2499V49.9218C179.094 49.7551 179.234 49.6145 179.401 49.6145C179.573 49.6145 179.708 49.7551 179.708 49.9218V66.2499C179.708 66.4166 179.573 66.552 179.401 66.552Z" fill="white"/>
<path d="M181.078 58.1405C181.323 56.2083 181.573 54.2708 181.818 52.3333C182.063 54.276 182.312 56.2135 182.557 58.1562C182.312 60.052 182.063 61.9426 181.818 63.8385C181.573 61.9374 181.323 60.0416 181.078 58.1405Z" fill="white"/>
<path d="M181.844 63.8385C181.677 63.8385 181.536 63.6978 181.536 63.5312V52.6353C181.536 52.4687 181.677 52.3333 181.844 52.3333C182.016 52.3333 182.151 52.4687 182.151 52.6353V63.5312C182.151 63.6978 182.016 63.8385 181.844 63.8385Z" fill="white"/>
<path d="M179.719 67.375C179.719 67.5781 179.609 67.6823 179.401 67.6823C179.193 67.6823 179.089 67.5781 179.089 67.375C179.089 67.1667 179.193 67.0625 179.401 67.0625C179.609 67.0625 179.719 67.1667 179.719 67.375Z" fill="white"/>
<path d="M179.589 68.3645C179.589 68.4843 179.526 68.5468 179.401 68.5468C179.276 68.5468 179.214 68.4843 179.214 68.3645C179.214 68.2395 179.276 68.177 179.401 68.177C179.526 68.177 179.589 68.2395 179.589 68.3645Z" fill="white"/>
<path d="M157.984 67.375C157.984 67.5781 157.88 67.6823 157.672 67.6823C157.464 67.6823 157.359 67.5781 157.359 67.375C157.359 67.1667 157.464 67.0625 157.672 67.0625C157.88 67.0625 157.984 67.1667 157.984 67.375Z" fill="white"/>
<path d="M157.859 68.3645C157.859 68.4843 157.797 68.5468 157.672 68.5468C157.547 68.5468 157.484 68.4843 157.484 68.3645C157.484 68.2395 157.547 68.177 157.672 68.177C157.797 68.177 157.859 68.2395 157.859 68.3645Z" fill="white"/>
<path d="M177.302 63.6615C177.302 63.8699 177.198 63.974 176.99 63.974C176.781 63.974 176.672 63.8699 176.672 63.6615C176.672 63.4584 176.781 63.3542 176.99 63.3542C177.198 63.3542 177.302 63.4584 177.302 63.6615Z" fill="white"/>
<path d="M177.177 64.6563C177.177 64.776 177.115 64.8385 176.99 64.8385C176.865 64.8385 176.802 64.776 176.802 64.6563C176.802 64.5313 176.865 64.4688 176.99 64.4688C177.115 64.4688 177.177 64.5313 177.177 64.6563Z" fill="white"/>
<path d="M153.156 63.9739C153.156 64.177 153.052 64.2812 152.844 64.2812C152.635 64.2812 152.531 64.177 152.531 63.9739C152.531 63.7655 152.635 63.6614 152.844 63.6614C153.052 63.6614 153.156 63.7655 153.156 63.9739Z" fill="white"/>
<path d="M153.031 64.9636C153.031 65.0886 152.969 65.1459 152.844 65.1459C152.719 65.1459 152.656 65.0886 152.656 64.9636C152.656 64.8386 152.719 64.7761 152.844 64.7761C152.969 64.7761 153.031 64.8386 153.031 64.9636Z" fill="white"/>
<path d="M162.813 63.6615C162.813 63.8699 162.708 63.974 162.5 63.974C162.292 63.974 162.188 63.8699 162.188 63.6615C162.188 63.4584 162.292 63.3542 162.5 63.3542C162.708 63.3542 162.813 63.4584 162.813 63.6615Z" fill="white"/>
<path d="M162.688 64.6563C162.688 64.776 162.625 64.8385 162.5 64.8385C162.375 64.8385 162.312 64.776 162.312 64.6563C162.312 64.5313 162.375 64.4688 162.5 64.4688C162.625 64.4688 162.688 64.5313 162.688 64.6563Z" fill="white"/>
<path d="M182.161 64.5313C182.161 64.7344 182.057 64.8385 181.844 64.8385C181.635 64.8385 181.531 64.7344 181.531 64.5313C181.531 64.3229 181.635 64.2188 181.844 64.2188C182.057 64.2188 182.161 64.3229 182.161 64.5313Z" fill="white"/>
<path d="M182.031 65.5208C182.031 65.6405 181.969 65.703 181.844 65.703C181.719 65.703 181.656 65.6405 181.656 65.5208C181.656 65.3958 181.719 65.3333 181.844 65.3333C181.969 65.3333 182.031 65.3958 182.031 65.5208Z" fill="white"/>
<path d="M160.422 64.5313C160.422 64.7344 160.318 64.8385 160.109 64.8385C159.896 64.8385 159.792 64.7344 159.792 64.5313C159.792 64.3229 159.896 64.2188 160.109 64.2188C160.318 64.2188 160.422 64.3229 160.422 64.5313Z" fill="white"/>
<path d="M160.297 65.5208C160.297 65.6405 160.234 65.703 160.109 65.703C159.984 65.703 159.922 65.6405 159.922 65.5208C159.922 65.3958 159.984 65.3333 160.109 65.3333C160.234 65.3333 160.297 65.3958 160.297 65.5208Z" fill="white"/>
<path d="M155.573 65.8906C155.573 66.0937 155.469 66.1979 155.255 66.1979C155.047 66.1979 154.943 66.0937 154.943 65.8906C154.943 65.6823 155.047 65.5781 155.255 65.5781C155.469 65.5781 155.573 65.6823 155.573 65.8906Z" fill="white"/>
<path d="M155.443 66.8801C155.443 66.9999 155.38 67.0624 155.255 67.0624C155.13 67.0624 155.068 66.9999 155.068 66.8801C155.068 66.7551 155.13 66.6926 155.255 66.6926C155.38 66.6926 155.443 66.7551 155.443 66.8801Z" fill="white"/>
<path d="M174.885 61.4323C174.885 61.6406 174.781 61.7448 174.573 61.7448C174.365 61.7448 174.26 61.6406 174.26 61.4323C174.26 61.2292 174.365 61.125 174.573 61.125C174.781 61.125 174.885 61.2292 174.885 61.4323Z" fill="white"/>
<path d="M174.76 62.4218C174.76 62.5468 174.698 62.6093 174.573 62.6093C174.448 62.6093 174.385 62.5468 174.385 62.4218C174.385 62.302 174.448 62.2395 174.573 62.2395C174.698 62.2395 174.76 62.302 174.76 62.4218Z" fill="white"/>
<path d="M165.229 61.4323C165.229 61.6406 165.125 61.7448 164.917 61.7448C164.703 61.7448 164.599 61.6406 164.599 61.4323C164.599 61.2292 164.703 61.125 164.917 61.125C165.125 61.125 165.229 61.2292 165.229 61.4323Z" fill="white"/>
<path d="M165.104 62.4218C165.104 62.5468 165.042 62.6093 164.917 62.6093C164.792 62.6093 164.729 62.5468 164.729 62.4218C164.729 62.302 164.792 62.2395 164.917 62.2395C165.042 62.2395 165.104 62.302 165.104 62.4218Z" fill="white"/>
<path d="M170.057 67.9324C170.057 68.1355 169.953 68.2397 169.745 68.2397C169.537 68.2397 169.432 68.1355 169.432 67.9324C169.432 67.724 169.537 67.6199 169.745 67.6199C169.953 67.6199 170.057 67.724 170.057 67.9324Z" fill="white"/>
<path d="M169.932 68.9219C169.932 69.0469 169.87 69.1042 169.745 69.1042C169.62 69.1042 169.557 69.0469 169.557 68.9219C169.557 68.7969 169.62 68.7344 169.745 68.7344C169.87 68.7344 169.932 68.7969 169.932 68.9219Z" fill="white"/>
<path d="M167.646 71.4635C167.646 71.6719 167.542 71.776 167.328 71.776C167.12 71.776 167.016 71.6719 167.016 71.4635C167.016 71.2604 167.12 71.1562 167.328 71.1562C167.542 71.1562 167.646 71.2604 167.646 71.4635Z" fill="white"/>
<path d="M167.516 72.4583C167.516 72.578 167.453 72.6405 167.328 72.6405C167.203 72.6405 167.141 72.578 167.141 72.4583C167.141 72.3333 167.203 72.2708 167.328 72.2708C167.453 72.2708 167.516 72.3333 167.516 72.4583Z" fill="white"/>
<path d="M172.474 72.3333C172.474 72.5364 172.37 72.6405 172.156 72.6405C171.948 72.6405 171.844 72.5364 171.844 72.3333C171.844 72.1249 171.948 72.0208 172.156 72.0208C172.37 72.0208 172.474 72.1249 172.474 72.3333Z" fill="white"/>
<mask id="mask8_326_3" style="mask-type:luminance" maskUnits="userSpaceOnUse" x="170" y="72" width="4" height="2">
<path d="M170.667 72.6667H173.333V73.5209H170.667V72.6667Z" fill="white"/>
</mask>
<g mask="url(#mask8_326_3)">
<path d="M172.344 73.323C172.344 73.448 172.281 73.5053 172.156 73.5053C172.037 73.5053 171.974 73.448 171.974 73.323C171.974 73.198 172.037 73.1355 172.156 73.1355C172.281 73.1355 172.344 73.198 172.344 73.323Z" fill="white"/>
</g>
<path d="M184.547 66.0156C184.547 66.2187 184.443 66.3229 184.234 66.3229C184.021 66.3229 183.917 66.2187 183.917 66.0156C183.917 65.8073 184.021 65.7031 184.234 65.7031C184.443 65.7031 184.547 65.8073 184.547 66.0156Z" fill="white"/>
<path d="M184.417 67.0051C184.417 67.1249 184.354 67.1874 184.234 67.1874C184.109 67.1874 184.047 67.1249 184.047 67.0051C184.047 66.8801 184.109 66.8176 184.234 66.8176C184.354 66.8176 184.417 66.8801 184.417 67.0051Z" fill="white"/>
<path d="M186.958 63.7864C186.958 63.9947 186.854 64.0937 186.646 64.0937C186.437 64.0937 186.333 63.9947 186.333 63.7864C186.333 63.578 186.437 63.4739 186.646 63.4739C186.854 63.4739 186.958 63.578 186.958 63.7864Z" fill="white"/>
<path d="M186.833 64.776C186.833 64.901 186.771 64.9635 186.646 64.9635C186.521 64.9635 186.458 64.901 186.458 64.776C186.458 64.651 186.521 64.5938 186.646 64.5938C186.771 64.5938 186.833 64.651 186.833 64.776Z" fill="white"/>
<path d="M189.401 62.1928C189.401 62.4011 189.297 62.5053 189.088 62.5053C188.875 62.5053 188.771 62.4011 188.771 62.1928C188.771 61.9897 188.875 61.8855 189.088 61.8855C189.297 61.8855 189.401 61.9897 189.401 62.1928Z" fill="white"/>
<path d="M189.276 63.1875C189.276 63.3073 189.214 63.3698 189.089 63.3698C188.964 63.3698 188.901 63.3073 188.901 63.1875C188.901 63.0625 188.964 63 189.089 63C189.214 63 189.276 63.0625 189.276 63.1875Z" fill="white"/>
<path d="M150.74 62.2656C150.74 62.474 150.635 62.5729 150.427 62.5729C150.219 62.5729 150.115 62.474 150.115 62.2656C150.115 62.0573 150.219 61.9531 150.427 61.9531C150.635 61.9531 150.74 62.0573 150.74 62.2656Z" fill="white"/>
<path d="M150.615 63.2553C150.615 63.3803 150.552 63.4428 150.427 63.4428C150.302 63.4428 150.24 63.3803 150.24 63.2553C150.24 63.1303 150.302 63.073 150.427 63.073C150.552 63.073 150.615 63.1303 150.615 63.2553Z" fill="white"/>
<path d="M191.792 61.328C191.792 61.5364 191.682 61.6405 191.474 61.6405C191.266 61.6405 191.161 61.5364 191.161 61.328C191.161 61.1197 191.266 61.0208 191.474 61.0208C191.682 61.0208 191.792 61.1197 191.792 61.328Z" fill="white"/>
<path d="M191.661 62.3178C191.661 62.4428 191.599 62.5053 191.474 62.5053C191.349 62.5053 191.286 62.4428 191.286 62.3178C191.286 62.198 191.349 62.1355 191.474 62.1355C191.599 62.1355 191.661 62.198 191.661 62.3178Z" fill="white"/>
<path d="M148.328 61.328C148.328 61.5364 148.224 61.6405 148.016 61.6405C147.802 61.6405 147.698 61.5364 147.698 61.328C147.698 61.1197 147.802 61.0208 148.016 61.0208C148.224 61.0208 148.328 61.1197 148.328 61.328Z" fill="white"/>
<path d="M148.203 62.3178C148.203 62.4428 148.141 62.5053 148.016 62.5053C147.891 62.5053 147.828 62.4428 147.828 62.3178C147.828 62.198 147.891 62.1355 148.016 62.1355C148.141 62.1355 148.203 62.198 148.203 62.3178Z" fill="white"/>
<path d="M194.203 60.7917C194.203 61 194.099 61.1042 193.891 61.1042C193.682 61.1042 193.578 61 193.578 60.7917C193.578 60.5885 193.682 60.4844 193.891 60.4844C194.099 60.4844 194.203 60.5885 194.203 60.7917Z" fill="white"/>
<path d="M194.078 61.7812C194.078 61.9062 194.016 61.9687 193.891 61.9687C193.766 61.9687 193.703 61.9062 193.703 61.7812C193.703 61.6614 193.766 61.5989 193.891 61.5989C194.016 61.5989 194.078 61.6614 194.078 61.7812Z" fill="white"/>
<path d="M196.646 60.052C196.646 60.2551 196.542 60.3593 196.328 60.3593C196.12 60.3593 196.016 60.2551 196.016 60.052C196.016 59.8437 196.12 59.7395 196.328 59.7395C196.542 59.7395 196.646 59.8437 196.646 60.052Z" fill="white"/>
<path d="M196.516 61.0417C196.516 61.1667 196.453 61.2292 196.328 61.2292C196.203 61.2292 196.141 61.1667 196.141 61.0417C196.141 60.9167 196.203 60.8594 196.328 60.8594C196.453 60.8594 196.516 60.9167 196.516 61.0417Z" fill="white"/>
<path d="M143.474 60.052C143.474 60.2551 143.37 60.3593 143.156 60.3593C142.948 60.3593 142.844 60.2551 142.844 60.052C142.844 59.8437 142.948 59.7395 143.156 59.7395C143.37 59.7395 143.474 59.8437 143.474 60.052Z" fill="white"/>
<path d="M143.344 61.0417C143.344 61.1667 143.281 61.2292 143.156 61.2292C143.031 61.2292 142.969 61.1667 142.969 61.0417C142.969 60.9167 143.031 60.8594 143.156 60.8594C143.281 60.8594 143.344 60.9167 143.344 61.0417Z" fill="white"/>
<path d="M145.911 60.6094C145.911 60.8125 145.807 60.9167 145.599 60.9167C145.391 60.9167 145.286 60.8125 145.286 60.6094C145.286 60.401 145.391 60.2969 145.599 60.2969C145.807 60.2969 145.911 60.401 145.911 60.6094Z" fill="white"/>
<path d="M145.786 61.5989C145.786 61.7239 145.724 61.7812 145.599 61.7812C145.474 61.7812 145.411 61.7239 145.411 61.5989C145.411 61.4739 145.474 61.4114 145.599 61.4114C145.724 61.4114 145.786 61.4739 145.786 61.5989Z" fill="white"/>
<path d="M198.948 59.5312C198.948 59.6822 198.875 59.7603 198.719 59.7603C198.562 59.7603 198.49 59.6822 198.49 59.5312C198.49 59.3801 198.562 59.302 198.719 59.302C198.875 59.302 198.948 59.3801 198.948 59.5312Z" fill="white"/>
<path d="M198.859 60.2604C198.859 60.3542 198.812 60.3958 198.719 60.3958C198.625 60.3958 198.583 60.3542 198.583 60.2604C198.583 60.1719 198.625 60.125 198.719 60.125C198.812 60.125 198.859 60.1719 198.859 60.2604Z" fill="white"/>
<path d="M201.365 59.1667C201.365 59.3177 201.287 59.3958 201.135 59.3958C200.979 59.3958 200.901 59.3177 200.901 59.1667C200.901 59.0156 200.979 58.9375 201.135 58.9375C201.287 58.9375 201.365 59.0156 201.365 59.1667Z" fill="white"/>
<path d="M201.271 59.8959C201.271 59.9897 201.224 60.0313 201.135 60.0313C201.042 60.0313 200.995 59.9897 200.995 59.8959C200.995 59.8074 201.042 59.7605 201.135 59.7605C201.224 59.7605 201.271 59.8074 201.271 59.8959Z" fill="white"/>
<path d="M138.589 59.1667C138.589 59.3177 138.51 59.3958 138.354 59.3958C138.203 59.3958 138.125 59.3177 138.125 59.1667C138.125 59.0156 138.203 58.9375 138.354 58.9375C138.51 58.9375 138.589 59.0156 138.589 59.1667Z" fill="white"/>
<path d="M138.495 59.8959C138.495 59.9897 138.448 60.0313 138.354 60.0313C138.266 60.0313 138.219 59.9897 138.219 59.8959C138.219 59.8074 138.266 59.7605 138.354 59.7605C138.448 59.7605 138.495 59.8074 138.495 59.8959Z" fill="white"/>
<path d="M203.807 58.9843C203.807 59.1353 203.729 59.2083 203.573 59.2083C203.422 59.2083 203.344 59.1353 203.344 58.9843C203.344 58.828 203.422 58.7551 203.573 58.7551C203.729 58.7551 203.807 58.828 203.807 58.9843Z" fill="white"/>
<path d="M203.714 59.7135C203.714 59.8021 203.667 59.849 203.573 59.849C203.484 59.849 203.438 59.8021 203.438 59.7135C203.438 59.625 203.484 59.5781 203.573 59.5781C203.667 59.5781 203.714 59.625 203.714 59.7135Z" fill="white"/>
<path d="M136.146 58.9843C136.146 59.1353 136.068 59.2083 135.917 59.2083C135.76 59.2083 135.682 59.1353 135.682 58.9843C135.682 58.828 135.76 58.7551 135.917 58.7551C136.068 58.7551 136.146 58.828 136.146 58.9843Z" fill="white"/>
<path d="M136.052 59.7135C136.052 59.8021 136.005 59.849 135.917 59.849C135.823 59.849 135.776 59.8021 135.776 59.7135C135.776 59.625 135.823 59.5781 135.917 59.5781C136.005 59.5781 136.052 59.625 136.052 59.7135Z" fill="white"/>
<path d="M206.193 58.7917C206.193 58.9427 206.115 59.0208 205.964 59.0208C205.807 59.0208 205.729 58.9427 205.729 58.7917C205.729 58.6406 205.807 58.5625 205.964 58.5625C206.115 58.5625 206.193 58.6406 206.193 58.7917Z" fill="white"/>
<path d="M206.099 59.5261C206.099 59.6147 206.057 59.6615 205.964 59.6615C205.87 59.6615 205.823 59.6147 205.823 59.5261C205.823 59.4324 205.87 59.3855 205.964 59.3855C206.057 59.3855 206.099 59.4324 206.099 59.5261Z" fill="white"/>
<path d="M179.719 48.7135C179.719 48.9219 179.609 49.026 179.401 49.026C179.193 49.026 179.089 48.9219 179.089 48.7135C179.089 48.5052 179.193 48.4062 179.401 48.4062C179.609 48.4062 179.719 48.5052 179.719 48.7135Z" fill="white"/>
<path d="M179.589 47.7239C179.589 47.8489 179.526 47.9062 179.401 47.9062C179.276 47.9062 179.214 47.8489 179.214 47.7239C179.214 47.5989 179.276 47.5364 179.401 47.5364C179.526 47.5364 179.589 47.5989 179.589 47.7239Z" fill="white"/>
<path d="M157.984 48.7135C157.984 48.9219 157.88 49.026 157.672 49.026C157.464 49.026 157.359 48.9219 157.359 48.7135C157.359 48.5052 157.464 48.4062 157.672 48.4062C157.88 48.4062 157.984 48.5052 157.984 48.7135Z" fill="white"/>
<path d="M157.859 47.7239C157.859 47.8489 157.797 47.9062 157.672 47.9062C157.547 47.9062 157.484 47.8489 157.484 47.7239C157.484 47.5989 157.547 47.5364 157.672 47.5364C157.797 47.5364 157.859 47.5989 157.859 47.7239Z" fill="white"/>
<path d="M172.474 43.7084C172.474 43.9167 172.37 44.0209 172.156 44.0209C171.948 44.0209 171.844 43.9167 171.844 43.7084C171.844 43.5053 171.948 43.4011 172.156 43.4011C172.37 43.4011 172.474 43.5053 172.474 43.7084Z" fill="white"/>
<mask id="mask9_326_3" style="mask-type:luminance" maskUnits="userSpaceOnUse" x="170" y="42" width="4" height="2">
<path d="M170.667 42.5208H173.333V43.3333H170.667V42.5208Z" fill="white"/>
</mask>
<g mask="url(#mask9_326_3)">
<path d="M172.344 42.7187C172.344 42.8437 172.281 42.9062 172.156 42.9062C172.037 42.9062 171.974 42.8437 171.974 42.7187C171.974 42.5989 172.037 42.5364 172.156 42.5364C172.281 42.5364 172.344 42.5989 172.344 42.7187Z" fill="white"/>
</g>
<path d="M170.057 47.9739C170.057 48.177 169.953 48.2812 169.745 48.2812C169.537 48.2812 169.432 48.177 169.432 47.9739C169.432 47.7655 169.537 47.6614 169.745 47.6614C169.953 47.6614 170.057 47.7655 170.057 47.9739Z" fill="white"/>
<path d="M169.932 46.9792C169.932 47.1042 169.87 47.1667 169.745 47.1667C169.62 47.1667 169.557 47.1042 169.557 46.9792C169.557 46.8594 169.62 46.7969 169.745 46.7969C169.87 46.7969 169.932 46.8594 169.932 46.9792Z" fill="white"/>
<path d="M167.646 44.453C167.646 44.6614 167.542 44.7655 167.328 44.7655C167.12 44.7655 167.016 44.6614 167.016 44.453C167.016 44.2447 167.12 44.1458 167.328 44.1458C167.542 44.1458 167.646 44.2447 167.646 44.453Z" fill="white"/>
<mask id="mask10_326_3" style="mask-type:luminance" maskUnits="userSpaceOnUse" x="166" y="42" width="2" height="3">
<path d="M166.667 42.5208H168V44.6666H166.667V42.5208Z" fill="white"/>
</mask>
<g mask="url(#mask10_326_3)">
<path d="M167.516 43.4635C167.516 43.5885 167.453 43.6458 167.328 43.6458C167.203 43.6458 167.141 43.5885 167.141 43.4635C167.141 43.3385 167.203 43.276 167.328 43.276C167.453 43.276 167.516 43.3385 167.516 43.4635Z" fill="white"/>
</g>
<path d="M177.302 52.5156C177.302 52.7187 177.198 52.8229 176.99 52.8229C176.781 52.8229 176.672 52.7187 176.672 52.5156C176.672 52.3073 176.781 52.2031 176.99 52.2031C177.198 52.2031 177.302 52.3073 177.302 52.5156Z" fill="white"/>
<path d="M177.177 51.5209C177.177 51.6459 177.115 51.7084 176.99 51.7084C176.865 51.7084 176.802 51.6459 176.802 51.5209C176.802 51.4011 176.865 51.3386 176.99 51.3386C177.115 51.3386 177.177 51.4011 177.177 51.5209Z" fill="white"/>
<path d="M162.813 52.5156C162.813 52.7187 162.708 52.8229 162.5 52.8229C162.292 52.8229 162.188 52.7187 162.188 52.5156C162.188 52.3073 162.292 52.2031 162.5 52.2031C162.708 52.2031 162.813 52.3073 162.813 52.5156Z" fill="white"/>
<path d="M162.688 51.5209C162.688 51.6459 162.625 51.7084 162.5 51.7084C162.375 51.7084 162.312 51.6459 162.312 51.5209C162.312 51.4011 162.375 51.3386 162.5 51.3386C162.625 51.3386 162.688 51.4011 162.688 51.5209Z" fill="white"/>
<path d="M174.885 54.4635C174.885 54.6719 174.781 54.776 174.573 54.776C174.365 54.776 174.26 54.6719 174.26 54.4635C174.26 54.2604 174.365 54.1562 174.573 54.1562C174.781 54.1562 174.885 54.2604 174.885 54.4635Z" fill="white"/>
<path d="M174.76 53.474C174.76 53.599 174.698 53.6615 174.573 53.6615C174.448 53.6615 174.385 53.599 174.385 53.474C174.385 53.349 174.448 53.2917 174.573 53.2917C174.698 53.2917 174.76 53.349 174.76 53.474Z" fill="white"/>
<path d="M165.229 54.4635C165.229 54.6719 165.125 54.776 164.917 54.776C164.703 54.776 164.599 54.6719 164.599 54.4635C164.599 54.2604 164.703 54.1562 164.917 54.1562C165.125 54.1562 165.229 54.2604 165.229 54.4635Z" fill="white"/>
<path d="M165.104 53.474C165.104 53.599 165.042 53.6615 164.917 53.6615C164.792 53.6615 164.729 53.599 164.729 53.474C164.729 53.349 164.792 53.2917 164.917 53.2917C165.042 53.2917 165.104 53.349 165.104 53.474Z" fill="white"/>
<path d="M182.13 51.4062C182.13 51.6145 182.026 51.7187 181.818 51.7187C181.609 51.7187 181.505 51.6145 181.505 51.4062C181.505 51.1978 181.609 51.0989 181.818 51.0989C182.026 51.0989 182.13 51.1978 182.13 51.4062Z" fill="white"/>
<path d="M182.005 50.4167C182.005 50.5417 181.943 50.599 181.818 50.599C181.693 50.599 181.63 50.5417 181.63 50.4167C181.63 50.2917 181.693 50.2292 181.818 50.2292C181.943 50.2292 182.005 50.2917 182.005 50.4167Z" fill="white"/>
<path d="M160.438 51.4062C160.438 51.6145 160.333 51.7187 160.125 51.7187C159.917 51.7187 159.812 51.6145 159.812 51.4062C159.812 51.1978 159.917 51.0989 160.125 51.0989C160.333 51.0989 160.438 51.1978 160.438 51.4062Z" fill="white"/>
<path d="M160.313 50.4167C160.313 50.5417 160.25 50.599 160.125 50.599C160 50.599 159.938 50.5417 159.938 50.4167C159.938 50.2917 160 50.2292 160.125 50.2292C160.25 50.2292 160.313 50.2917 160.313 50.4167Z" fill="white"/>
<path d="M184.547 50.1979C184.547 50.4063 184.443 50.5104 184.234 50.5104C184.021 50.5104 183.917 50.4063 183.917 50.1979C183.917 49.9896 184.021 49.8906 184.234 49.8906C184.443 49.8906 184.547 49.9896 184.547 50.1979Z" fill="white"/>
<path d="M184.417 49.2083C184.417 49.3333 184.354 49.3905 184.234 49.3905C184.109 49.3905 184.047 49.3333 184.047 49.2083C184.047 49.0833 184.109 49.0208 184.234 49.0208C184.354 49.0208 184.417 49.0833 184.417 49.2083Z" fill="white"/>
<path d="M155.573 50.1979C155.573 50.4063 155.469 50.5104 155.255 50.5104C155.047 50.5104 154.943 50.4063 154.943 50.1979C154.943 49.9896 155.047 49.8906 155.255 49.8906C155.469 49.8906 155.573 49.9896 155.573 50.1979Z" fill="white"/>
<path d="M155.443 49.2083C155.443 49.3333 155.38 49.3905 155.255 49.3905C155.13 49.3905 155.068 49.3333 155.068 49.2083C155.068 49.0833 155.13 49.0208 155.255 49.0208C155.38 49.0208 155.443 49.0833 155.443 49.2083Z" fill="white"/>
<path d="M186.958 52.3905C186.958 52.5989 186.854 52.703 186.646 52.703C186.437 52.703 186.333 52.5989 186.333 52.3905C186.333 52.1822 186.437 52.0833 186.646 52.0833C186.854 52.0833 186.958 52.1822 186.958 52.3905Z" fill="white"/>
<path d="M186.833 51.4011C186.833 51.5261 186.771 51.5834 186.646 51.5834C186.521 51.5834 186.458 51.5261 186.458 51.4011C186.458 51.2761 186.521 51.2136 186.646 51.2136C186.771 51.2136 186.833 51.2761 186.833 51.4011Z" fill="white"/>
<path d="M153.156 52.3905C153.156 52.5989 153.052 52.703 152.844 52.703C152.635 52.703 152.531 52.5989 152.531 52.3905C152.531 52.1822 152.635 52.0833 152.844 52.0833C153.052 52.0833 153.156 52.1822 153.156 52.3905Z" fill="white"/>
<path d="M153.031 51.4011C153.031 51.5261 152.969 51.5834 152.844 51.5834C152.719 51.5834 152.656 51.5261 152.656 51.4011C152.656 51.2761 152.719 51.2136 152.844 51.2136C152.969 51.2136 153.031 51.2761 153.031 51.4011Z" fill="white"/>
<path d="M191.792 54.8438C191.792 55.0469 191.682 55.151 191.474 55.151C191.266 55.151 191.161 55.0469 191.161 54.8438C191.161 54.6354 191.266 54.5312 191.474 54.5312C191.682 54.5312 191.792 54.6354 191.792 54.8438Z" fill="white"/>
<path d="M191.661 53.849C191.661 53.974 191.599 54.0365 191.474 54.0365C191.349 54.0365 191.286 53.974 191.286 53.849C191.286 53.7292 191.349 53.6667 191.474 53.6667C191.599 53.6667 191.661 53.7292 191.661 53.849Z" fill="white"/>
<path d="M194.203 55.3905C194.203 55.5989 194.099 55.703 193.891 55.703C193.682 55.703 193.578 55.5989 193.578 55.3905C193.578 55.1874 193.682 55.0833 193.891 55.0833C194.099 55.0833 194.203 55.1874 194.203 55.3905Z" fill="white"/>
<path d="M194.078 54.401C194.078 54.526 194.016 54.5885 193.891 54.5885C193.766 54.5885 193.703 54.526 193.703 54.401C193.703 54.276 193.766 54.2188 193.891 54.2188C194.016 54.2188 194.078 54.276 194.078 54.401Z" fill="white"/>
<path d="M196.646 56.0155C196.646 56.2239 196.542 56.328 196.328 56.328C196.12 56.328 196.016 56.2239 196.016 56.0155C196.016 55.8124 196.12 55.7083 196.328 55.7083C196.542 55.7083 196.646 55.8124 196.646 56.0155Z" fill="white"/>
<path d="M196.516 55.026C196.516 55.151 196.453 55.2135 196.328 55.2135C196.203 55.2135 196.141 55.151 196.141 55.026C196.141 54.901 196.203 54.8438 196.328 54.8438C196.453 54.8438 196.516 54.901 196.516 55.026Z" fill="white"/>
<path d="M199.031 56.4479C199.031 56.6563 198.927 56.7604 198.719 56.7604C198.51 56.7604 198.406 56.6563 198.406 56.4479C198.406 56.2448 198.51 56.1406 198.719 56.1406C198.927 56.1406 199.031 56.2448 199.031 56.4479Z" fill="white"/>
<path d="M198.906 55.4584C198.906 55.5834 198.844 55.6459 198.719 55.6459C198.594 55.6459 198.531 55.5834 198.531 55.4584C198.531 55.3386 198.594 55.2761 198.719 55.2761C198.844 55.2761 198.906 55.3386 198.906 55.4584Z" fill="white"/>
<path d="M138.672 56.8074C138.672 57.0105 138.563 57.1147 138.354 57.1147C138.146 57.1147 138.042 57.0105 138.042 56.8074C138.042 56.599 138.146 56.4949 138.354 56.4949C138.563 56.4949 138.672 56.599 138.672 56.8074Z" fill="white"/>
<path d="M138.542 55.8124C138.542 55.9374 138.479 55.9999 138.354 55.9999C138.229 55.9999 138.167 55.9374 138.167 55.8124C138.167 55.6926 138.229 55.6301 138.354 55.6301C138.479 55.6301 138.542 55.6926 138.542 55.8124Z" fill="white"/>
<path d="M136.229 56.9895C136.229 57.1978 136.125 57.302 135.917 57.302C135.703 57.302 135.599 57.1978 135.599 56.9895C135.599 56.7812 135.703 56.677 135.917 56.677C136.125 56.677 136.229 56.7812 136.229 56.9895Z" fill="white"/>
<path d="M136.104 56C136.104 56.1198 136.042 56.1823 135.917 56.1823C135.792 56.1823 135.729 56.1198 135.729 56C135.729 55.875 135.792 55.8125 135.917 55.8125C136.042 55.8125 136.104 55.875 136.104 56Z" fill="white"/>
<mask id="mask11_326_3" style="mask-type:luminance" maskUnits="userSpaceOnUse" x="132" y="56" width="3" height="3">
<path d="M132.203 56.6667H134.667V58.0001H132.203V56.6667Z" fill="white"/>
</mask>
<g mask="url(#mask11_326_3)">
<path d="M133.839 57.2396C133.839 57.4427 133.734 57.5469 133.526 57.5469C133.318 57.5469 133.214 57.4427 133.214 57.2396C133.214 57.0313 133.318 56.9271 133.526 56.9271C133.734 56.9271 133.839 57.0313 133.839 57.2396Z" fill="white"/>
</g>
<path d="M133.714 56.2448C133.714 56.3698 133.651 56.4323 133.526 56.4323C133.401 56.4323 133.339 56.3698 133.339 56.2448C133.339 56.125 133.401 56.0625 133.526 56.0625C133.651 56.0625 133.714 56.125 133.714 56.2448Z" fill="white"/>
<path d="M189.401 53.9062C189.401 54.1145 189.297 54.2187 189.088 54.2187C188.875 54.2187 188.771 54.1145 188.771 53.9062C188.771 53.703 188.875 53.5989 189.088 53.5989C189.297 53.5989 189.401 53.703 189.401 53.9062Z" fill="white"/>
<path d="M189.276 52.9167C189.276 53.0417 189.214 53.1042 189.089 53.1042C188.964 53.1042 188.901 53.0417 188.901 52.9167C188.901 52.7917 188.964 52.7344 189.089 52.7344C189.214 52.7344 189.276 52.7917 189.276 52.9167Z" fill="white"/>
<path d="M150.74 53.9062C150.74 54.1145 150.635 54.2187 150.427 54.2187C150.219 54.2187 150.115 54.1145 150.115 53.9062C150.115 53.703 150.219 53.5989 150.427 53.5989C150.635 53.5989 150.74 53.703 150.74 53.9062Z" fill="white"/>
<path d="M150.615 52.9167C150.615 53.0417 150.552 53.1042 150.427 53.1042C150.302 53.1042 150.24 53.0417 150.24 52.9167C150.24 52.7917 150.302 52.7344 150.427 52.7344C150.552 52.7344 150.615 52.7917 150.615 52.9167Z" fill="white"/>
<path d="M148.302 54.8854C148.302 55.0938 148.198 55.1979 147.99 55.1979C147.776 55.1979 147.672 55.0938 147.672 54.8854C147.672 54.6823 147.776 54.5781 147.99 54.5781C148.198 54.5781 148.302 54.6823 148.302 54.8854Z" fill="white"/>
<path d="M148.177 53.8959C148.177 54.0209 148.115 54.0834 147.99 54.0834C147.865 54.0834 147.802 54.0209 147.802 53.8959C147.802 53.7761 147.865 53.7136 147.99 53.7136C148.115 53.7136 148.177 53.7761 148.177 53.8959Z" fill="white"/>
<path d="M145.891 55.5625C145.891 55.7708 145.786 55.875 145.578 55.875C145.37 55.875 145.266 55.7708 145.266 55.5625C145.266 55.3542 145.37 55.25 145.578 55.25C145.786 55.25 145.891 55.3542 145.891 55.5625Z" fill="white"/>
<path d="M145.766 54.573C145.766 54.6928 145.703 54.7553 145.578 54.7553C145.453 54.7553 145.391 54.6928 145.391 54.573C145.391 54.448 145.453 54.3855 145.578 54.3855C145.703 54.3855 145.766 54.448 145.766 54.573Z" fill="white"/>
<path d="M143.474 56.1199C143.474 56.3282 143.37 56.4272 143.156 56.4272C142.948 56.4272 142.844 56.3282 142.844 56.1199C142.844 55.9115 142.948 55.8074 143.156 55.8074C143.37 55.8074 143.474 55.9115 143.474 56.1199Z" fill="white"/>
<path d="M143.344 55.1301C143.344 55.2551 143.281 55.3124 143.156 55.3124C143.031 55.3124 142.969 55.2551 142.969 55.1301C142.969 55.0051 143.031 54.9426 143.156 54.9426C143.281 54.9426 143.344 55.0051 143.344 55.1301Z" fill="white"/>
<path d="M141.083 56.3698C141.083 56.5781 140.979 56.6823 140.771 56.6823C140.562 56.6823 140.458 56.5781 140.458 56.3698C140.458 56.1667 140.562 56.0625 140.771 56.0625C140.979 56.0625 141.083 56.1667 141.083 56.3698Z" fill="white"/>
<path d="M140.958 55.3803C140.958 55.5053 140.896 55.5678 140.771 55.5678C140.646 55.5678 140.583 55.5053 140.583 55.3803C140.583 55.2605 140.646 55.198 140.771 55.198C140.896 55.198 140.958 55.2605 140.958 55.3803Z" fill="white"/>
<path d="M206.193 57.1563C206.193 57.3126 206.115 57.3855 205.964 57.3855C205.807 57.3855 205.729 57.3126 205.729 57.1563C205.729 57.0053 205.807 56.9324 205.964 56.9324C206.115 56.9324 206.193 57.0053 206.193 57.1563Z" fill="white"/>
<path d="M206.099 56.4272C206.099 56.5209 206.057 56.5626 205.964 56.5626C205.87 56.5626 205.823 56.5209 205.823 56.4272C205.823 56.3386 205.87 56.2917 205.964 56.2917C206.057 56.2917 206.099 56.3386 206.099 56.4272Z" fill="white"/>
<path d="M203.781 57.1563C203.781 57.3126 203.703 57.3855 203.547 57.3855C203.396 57.3855 203.318 57.3126 203.318 57.1563C203.318 57.0053 203.396 56.9324 203.547 56.9324C203.703 56.9324 203.781 57.0053 203.781 57.1563Z" fill="white"/>
<path d="M203.687 56.4272C203.687 56.5209 203.641 56.5626 203.547 56.5626C203.458 56.5626 203.411 56.5209 203.411 56.4272C203.411 56.3386 203.458 56.2917 203.547 56.2917C203.641 56.2917 203.687 56.3386 203.687 56.4272Z" fill="white"/>
<path d="M201.365 57.0053C201.365 57.1563 201.287 57.2345 201.135 57.2345C200.979 57.2345 200.901 57.1563 200.901 57.0053C200.901 56.8542 200.979 56.7761 201.135 56.7761C201.287 56.7761 201.365 56.8542 201.365 57.0053Z" fill="white"/>
<path d="M201.271 56.276C201.271 56.3646 201.224 56.4115 201.135 56.4115C201.042 56.4115 200.995 56.3646 200.995 56.276C200.995 56.1823 201.042 56.1406 201.135 56.1406C201.224 56.1406 201.271 56.1823 201.271 56.276Z" fill="white"/>
<mask id="mask12_326_3" style="mask-type:luminance" maskUnits="userSpaceOnUse" x="132" y="58" width="3" height="2">
<path d="M132.203 58H134.667V59.3333H132.203V58Z" fill="white"/>
</mask>
<g mask="url(#mask12_326_3)">
<path d="M133.755 58.7917C133.755 58.9427 133.682 59.0208 133.526 59.0208C133.37 59.0208 133.297 58.9427 133.297 58.7917C133.297 58.6406 133.37 58.5625 133.526 58.5625C133.682 58.5625 133.755 58.6406 133.755 58.7917Z" fill="white"/>
</g>
<path d="M133.661 59.5261C133.661 59.6147 133.62 59.6615 133.526 59.6615C133.432 59.6615 133.391 59.6147 133.391 59.5261C133.391 59.4324 133.432 59.3855 133.526 59.3855C133.62 59.3855 133.661 59.4324 133.661 59.5261Z" fill="white"/>
<defs>
<linearGradient id="paint0_linear_326_3" x1="8.41855" y1="3.11929" x2="207.621" y2="64.7287" gradientUnits="userSpaceOnUse">
<stop stop-color="#996DFF"/>
<stop offset="0.0850227" stop-color="#996DFF"/>
<stop offset="0.25" stop-color="#996DFF"/>
<stop offset="0.3125" stop-color="#996DFF"/>
<stop offset="0.34375" stop-color="#996DFF"/>
<stop offset="0.359375" stop-color="#996DFF"/>
<stop offset="0.367188" stop-color="#996DFF"/>
<stop offset="0.371094" stop-color="#9A6DFE"/>
<stop offset="0.375" stop-color="#9B6DFD"/>
<stop offset="0.378906" stop-color="#9C6EFB"/>
<stop offset="0.382812" stop-color="#9C6EFA"/>
<stop offset="0.386719" stop-color="#9D6EF9"/>
<stop offset="0.390625" stop-color="#9E6EF7"/>
<stop offset="0.394531" stop-color="#9F6EF6"/>
<stop offset="0.398438" stop-color="#A06FF5"/>
<stop offset="0.402344" stop-color="#A16FF4"/>
<stop offset="0.40625" stop-color="#A26FF2"/>
<stop offset="0.410156" stop-color="#A36FF1"/>
<stop offset="0.414062" stop-color="#A470F0"/>
<stop offset="0.417969" stop-color="#A570EE"/>
<stop offset="0.421875" stop-color="#A670ED"/>
<stop offset="0.425781" stop-color="#A670EC"/>
<stop offset="0.429688" stop-color="#A771EB"/>
<stop offset="0.433594" stop-color="#A871E9"/>
<stop offset="0.4375" stop-color="#A971E8"/>
<stop offset="0.441406" stop-color="#AA71E7"/>
<stop offset="0.445312" stop-color="#AB71E5"/>
<stop offset="0.449219" stop-color="#AC72E4"/>
<stop offset="0.453125" stop-color="#AD72E3"/>
<stop offset="0.457031" stop-color="#AE72E1"/>
<stop offset="0.460938" stop-color="#AF72E0"/>
<stop offset="0.464844" stop-color="#B073DF"/>
<stop offset="0.46875" stop-color="#B073DE"/>
<stop offset="0.472656" stop-color="#B173DC"/>
<stop offset="0.476562" stop-color="#B273DB"/>
<stop offset="0.480469" stop-color="#B374DA"/>
<stop offset="0.484375" stop-color="#B474D8"/>
<stop offset="0.488281" stop-color="#B574D7"/>
<stop offset="0.492188" stop-color="#B674D6"/>
<stop offset="0.496094" stop-color="#B774D5"/>
<stop offset="0.5" stop-color="#B875D3"/>
<stop offset="0.503906" stop-color="#B975D2"/>
<stop offset="0.507812" stop-color="#BA75D1"/>
<stop offset="0.511719" stop-color="#BA75CF"/>
<stop offset="0.515625" stop-color="#BB76CE"/>
<stop offset="0.519531" stop-color="#BC76CD"/>
<stop offset="0.523438" stop-color="#BD76CB"/>
<stop offset="0.527344" stop-color="#BE76CA"/>
<stop offset="0.53125" stop-color="#BF77C9"/>
<stop offset="0.535156" stop-color="#C077C8"/>
<stop offset="0.539062" stop-color="#C177C6"/>
<stop offset="0.542969" stop-color="#C277C5"/>
<stop offset="0.546875" stop-color="#C378C4"/>
<stop offset="0.550781" stop-color="#C478C2"/>
<stop offset="0.554687" stop-color="#C578C1"/>
<stop offset="0.558594" stop-color="#C578C0"/>
<stop offset="0.5625" stop-color="#C678BF"/>
<stop offset="0.566406" stop-color="#C779BD"/>
<stop offset="0.570312" stop-color="#C879BC"/>
<stop offset="0.574219" stop-color="#C979BB"/>
<stop offset="0.578125" stop-color="#CA79B9"/>
<stop offset="0.582031" stop-color="#CB7AB8"/>
<stop offset="0.585937" stop-color="#CC7AB7"/>
<stop offset="0.589844" stop-color="#CD7AB5"/>
<stop offset="0.59375" stop-color="#CE7AB4"/>
<stop offset="0.597656" stop-color="#CF7BB3"/>
<stop offset="0.601562" stop-color="#CF7BB2"/>
<stop offset="0.605469" stop-color="#D07BB0"/>
<stop offset="0.609375" stop-color="#D17BAF"/>
<stop offset="0.613281" stop-color="#D27BAE"/>
<stop offset="0.617187" stop-color="#D37CAC"/>
<stop offset="0.621094" stop-color="#D47CAB"/>
<stop offset="0.625" stop-color="#D57CAA"/>
<stop offset="0.628906" stop-color="#D67CA8"/>
<stop offset="0.632812" stop-color="#D77DA7"/>
<stop offset="0.636719" stop-color="#D87DA6"/>
<stop offset="0.640625" stop-color="#D97DA5"/>
<stop offset="0.644531" stop-color="#D97DA3"/>
<stop offset="0.648437" stop-color="#DA7EA2"/>
<stop offset="0.652344" stop-color="#DB7EA1"/>
<stop offset="0.65625" stop-color="#DC7E9F"/>
<stop offset="0.660156" stop-color="#DD7E9E"/>
<stop offset="0.664062" stop-color="#DE7E9D"/>
<stop offset="0.667969" stop-color="#DF7F9C"/>
<stop offset="0.671875" stop-color="#E07F9A"/>
<stop offset="0.675781" stop-color="#E17F99"/>
<stop offset="0.679687" stop-color="#E27F98"/>
<stop offset="0.683594" stop-color="#E38096"/>
<stop offset="0.6875" stop-color="#E38095"/>
<stop offset="0.691406" stop-color="#E48094"/>
<stop offset="0.695312" stop-color="#E58092"/>
<stop offset="0.699219" stop-color="#E68191"/>
<stop offset="0.703125" stop-color="#E78190"/>
<stop offset="0.707031" stop-color="#E8818F"/>
<stop offset="0.710937" stop-color="#E9818D"/>
<stop offset="0.714844" stop-color="#EA818C"/>
<stop offset="0.71875" stop-color="#EB828B"/>
<stop offset="0.722656" stop-color="#EC8289"/>
<stop offset="0.726562" stop-color="#ED8288"/>
<stop offset="0.730469" stop-color="#ED8287"/>
<stop offset="0.734375" stop-color="#EE8386"/>
<stop offset="0.738281" stop-color="#EF8384"/>
<stop offset="0.742187" stop-color="#F08383"/>
<stop offset="0.746094" stop-color="#F18382"/>
<stop offset="0.75" stop-color="#F28480"/>
<stop offset="0.753906" stop-color="#F3847F"/>
<stop offset="0.757812" stop-color="#F4847E"/>
<stop offset="0.761719" stop-color="#F5847C"/>
<stop offset="0.765625" stop-color="#F6857B"/>
<stop offset="0.769531" stop-color="#F7857A"/>
<stop offset="0.773437" stop-color="#F78579"/>
<stop offset="0.777344" stop-color="#F88577"/>
<stop offset="0.78125" stop-color="#F98576"/>
<stop offset="0.785156" stop-color="#FA8675"/>
<stop offset="0.789062" stop-color="#FB8673"/>
<stop offset="0.792969" stop-color="#FC8672"/>
<stop offset="0.796875" stop-color="#FD8671"/>
<stop offset="0.800781" stop-color="#FE8770"/>
<stop offset="0.804687" stop-color="#FF876E"/>
<stop offset="0.808594" stop-color="#FF876E"/>
<stop offset="0.8125" stop-color="#FF886E"/>
<stop offset="0.816406" stop-color="#FF896E"/>
<stop offset="0.820312" stop-color="#FF896E"/>
<stop offset="0.824219" stop-color="#FF8A6E"/>
<stop offset="0.828125" stop-color="#FF8B6E"/>
<stop offset="0.832031" stop-color="#FF8B6E"/>
<stop offset="0.835938" stop-color="#FF8C6E"/>
<stop offset="0.839844" stop-color="#FF8D6E"/>
<stop offset="0.84375" stop-color="#FF8D6E"/>
<stop offset="0.847656" stop-color="#FF8E6E"/>
<stop offset="0.851562" stop-color="#FF8F6E"/>
<stop offset="0.855469" stop-color="#FF8F6E"/>
<stop offset="0.859375" stop-color="#FF906E"/>
<stop offset="0.863281" stop-color="#FF906E"/>
<stop offset="0.867188" stop-color="#FF916E"/>
<stop offset="0.871094" stop-color="#FF926F"/>
<stop offset="0.875" stop-color="#FF926F"/>
<stop offset="0.878906" stop-color="#FF936F"/>
<stop offset="0.882812" stop-color="#FF946F"/>
<stop offset="0.886719" stop-color="#FF946F"/>
<stop offset="0.890625" stop-color="#FF956F"/>
<stop offset="0.894531" stop-color="#FF966F"/>
<stop offset="0.898438" stop-color="#FF966F"/>
<stop offset="0.902344" stop-color="#FF976F"/>
<stop offset="0.90625" stop-color="#FF986F"/>
<stop offset="0.910156" stop-color="#FF986F"/>
<stop offset="0.914062" stop-color="#FF996F"/>
<stop offset="0.917969" stop-color="#FF9A6F"/>
<stop offset="0.921875" stop-color="#FF9A6F"/>
<stop offset="0.925781" stop-color="#FF9B6F"/>
<stop offset="0.929688" stop-color="#FF9B6F"/>
<stop offset="0.933594" stop-color="#FF9C6F"/>
<stop offset="0.9375" stop-color="#FF9D6F"/>
<stop offset="0.941406" stop-color="#FF9D6F"/>
<stop offset="0.945312" stop-color="#FF9E6F"/>
<stop offset="0.949219" stop-color="#FF9F6F"/>
<stop offset="0.953125" stop-color="#FF9F6F"/>
<stop offset="0.957031" stop-color="#FFA06F"/>
<stop offset="0.960938" stop-color="#FFA16F"/>
<stop offset="0.964844" stop-color="#FFA16F"/>
<stop offset="0.96875" stop-color="#FFA26F"/>
<stop offset="0.972656" stop-color="#FFA36F"/>
<stop offset="0.976562" stop-color="#FFA36F"/>
<stop offset="0.980469" stop-color="#FFA470"/>
<stop offset="0.984375" stop-color="#FFA570"/>
<stop offset="0.988281" stop-color="#FFA570"/>
<stop offset="0.992188" stop-color="#FFA670"/>
<stop offset="0.996094" stop-color="#FFA670"/>
<stop offset="1" stop-color="#FFA770"/>
</linearGradient>
<linearGradient id="paint1_linear_326_3" x1="0.651327" y1="40.243" x2="223.45" y2="40.243" gradientUnits="userSpaceOnUse">
<stop stop-color="#8C52FF"/>
<stop offset="0.00390625" stop-color="#8C53FF"/>
<stop offset="0.0078125" stop-color="#8C53FF"/>
<stop offset="0.0117188" stop-color="#8B54FF"/>
<stop offset="0.015625" stop-color="#8B54FF"/>
<stop offset="0.0195312" stop-color="#8B55FF"/>
<stop offset="0.0234375" stop-color="#8B55FE"/>
<stop offset="0.0273438" stop-color="#8B56FE"/>
<stop offset="0.03125" stop-color="#8A57FE"/>
<stop offset="0.0351562" stop-color="#8A57FE"/>
<stop offset="0.0390625" stop-color="#8A58FE"/>
<stop offset="0.0429688" stop-color="#8A58FE"/>
<stop offset="0.046875" stop-color="#8A59FE"/>
<stop offset="0.0507813" stop-color="#8A59FE"/>
<stop offset="0.0546875" stop-color="#895AFE"/>
<stop offset="0.0585938" stop-color="#895AFE"/>
<stop offset="0.0625" stop-color="#895BFD"/>
<stop offset="0.0664062" stop-color="#895CFD"/>
<stop offset="0.0703125" stop-color="#895CFD"/>
<stop offset="0.0742188" stop-color="#885DFD"/>
<stop offset="0.078125" stop-color="#885DFD"/>
<stop offset="0.0820313" stop-color="#885EFD"/>
<stop offset="0.0859375" stop-color="#885EFD"/>
<stop offset="0.0898438" stop-color="#885FFD"/>
<stop offset="0.09375" stop-color="#875FFD"/>
<stop offset="0.0976563" stop-color="#8760FD"/>
<stop offset="0.101563" stop-color="#8761FC"/>
<stop offset="0.105469" stop-color="#8761FC"/>
<stop offset="0.109375" stop-color="#8762FC"/>
<stop offset="0.113281" stop-color="#8762FC"/>
<stop offset="0.117188" stop-color="#8663FC"/>
<stop offset="0.121094" stop-color="#8663FC"/>
<stop offset="0.125" stop-color="#8664FC"/>
<stop offset="0.128906" stop-color="#8665FC"/>
<stop offset="0.132812" stop-color="#8665FC"/>
<stop offset="0.136719" stop-color="#8566FC"/>
<stop offset="0.140625" stop-color="#8566FB"/>
<stop offset="0.144531" stop-color="#8567FB"/>
<stop offset="0.148438" stop-color="#8567FB"/>
<stop offset="0.152344" stop-color="#8568FB"/>
<stop offset="0.15625" stop-color="#8568FB"/>
<stop offset="0.160156" stop-color="#8469FB"/>
<stop offset="0.164062" stop-color="#846AFB"/>
<stop offset="0.167969" stop-color="#846AFB"/>
<stop offset="0.171875" stop-color="#846BFB"/>
<stop offset="0.175781" stop-color="#846BFB"/>
<stop offset="0.179688" stop-color="#836CFB"/>
<stop offset="0.183594" stop-color="#836CFA"/>
<stop offset="0.1875" stop-color="#836DFA"/>
<stop offset="0.191406" stop-color="#836DFA"/>
<stop offset="0.195312" stop-color="#836EFA"/>
<stop offset="0.199219" stop-color="#826FFA"/>
<stop offset="0.203125" stop-color="#826FFA"/>
<stop offset="0.207031" stop-color="#8270FA"/>
<stop offset="0.210937" stop-color="#8270FA"/>
<stop offset="0.214844" stop-color="#8271FA"/>
<stop offset="0.21875" stop-color="#8271FA"/>
<stop offset="0.222656" stop-color="#8172F9"/>
<stop offset="0.226562" stop-color="#8172F9"/>
<stop offset="0.230469" stop-color="#8173F9"/>
<stop offset="0.234375" stop-color="#8174F9"/>
<stop offset="0.238281" stop-color="#8174F9"/>
<stop offset="0.242188" stop-color="#8075F9"/>
<stop offset="0.246094" stop-color="#8075F9"/>
<stop offset="0.25" stop-color="#8076F9"/>
<stop offset="0.253906" stop-color="#8076F9"/>
<stop offset="0.257812" stop-color="#8077F9"/>
<stop offset="0.261719" stop-color="#7F77F8"/>
<stop offset="0.265625" stop-color="#7F78F8"/>
<stop offset="0.269531" stop-color="#7F79F8"/>
<stop offset="0.273438" stop-color="#7F79F8"/>
<stop offset="0.277344" stop-color="#7F7AF8"/>
<stop offset="0.28125" stop-color="#7F7AF8"/>
<stop offset="0.285156" stop-color="#7E7BF8"/>
<stop offset="0.289062" stop-color="#7E7BF8"/>
<stop offset="0.292969" stop-color="#7E7CF8"/>
<stop offset="0.296875" stop-color="#7E7CF8"/>
<stop offset="0.300781" stop-color="#7E7DF7"/>
<stop offset="0.304688" stop-color="#7D7EF7"/>
<stop offset="0.308594" stop-color="#7D7EF7"/>
<stop offset="0.3125" stop-color="#7D7FF7"/>
<stop offset="0.316406" stop-color="#7D7FF7"/>
<stop offset="0.320312" stop-color="#7D80F7"/>
<stop offset="0.324219" stop-color="#7C80F7"/>
<stop offset="0.328125" stop-color="#7C81F7"/>
<stop offset="0.332031" stop-color="#7C82F7"/>
<stop offset="0.335938" stop-color="#7C82F7"/>
<stop offset="0.339844" stop-color="#7C83F7"/>
<stop offset="0.34375" stop-color="#7C83F6"/>
<stop offset="0.347656" stop-color="#7B84F6"/>
<stop offset="0.351562" stop-color="#7B84F6"/>
<stop offset="0.355469" stop-color="#7B85F6"/>
<stop offset="0.359375" stop-color="#7B85F6"/>
<stop offset="0.363281" stop-color="#7B86F6"/>
<stop offset="0.367188" stop-color="#7A87F6"/>
<stop offset="0.371094" stop-color="#7A87F6"/>
<stop offset="0.375" stop-color="#7A88F6"/>
<stop offset="0.378906" stop-color="#7A88F6"/>
<stop offset="0.382812" stop-color="#7A89F5"/>
<stop offset="0.386719" stop-color="#7989F5"/>
<stop offset="0.390625" stop-color="#798AF5"/>
<stop offset="0.394531" stop-color="#798AF5"/>
<stop offset="0.398438" stop-color="#798BF5"/>
<stop offset="0.402344" stop-color="#798CF5"/>
<stop offset="0.40625" stop-color="#798CF5"/>
<stop offset="0.410156" stop-color="#788DF5"/>
<stop offset="0.414062" stop-color="#788DF5"/>
<stop offset="0.417969" stop-color="#788EF5"/>
<stop offset="0.421875" stop-color="#788EF4"/>
<stop offset="0.425781" stop-color="#788FF4"/>
<stop offset="0.429688" stop-color="#778FF4"/>
<stop offset="0.433594" stop-color="#7790F4"/>
<stop offset="0.4375" stop-color="#7791F4"/>
<stop offset="0.441406" stop-color="#7791F4"/>
<stop offset="0.445312" stop-color="#7792F4"/>
<stop offset="0.449219" stop-color="#7692F4"/>
<stop offset="0.453125" stop-color="#7693F4"/>
<stop offset="0.457031" stop-color="#7693F4"/>
<stop offset="0.460938" stop-color="#7694F3"/>
<stop offset="0.464844" stop-color="#7694F3"/>
<stop offset="0.46875" stop-color="#7695F3"/>
<stop offset="0.472656" stop-color="#7596F3"/>
<stop offset="0.476562" stop-color="#7596F3"/>
<stop offset="0.480469" stop-color="#7597F3"/>
<stop offset="0.484375" stop-color="#7597F3"/>
<stop offset="0.488281" stop-color="#7598F3"/>
<stop offset="0.492188" stop-color="#7498F3"/>
<stop offset="0.496094" stop-color="#7499F3"/>
<stop offset="0.5" stop-color="#7499F3"/>
<stop offset="0.503906" stop-color="#749AF2"/>
<stop offset="0.507812" stop-color="#749BF2"/>
<stop offset="0.511719" stop-color="#739BF2"/>
<stop offset="0.515625" stop-color="#739CF2"/>
<stop offset="0.519531" stop-color="#739CF2"/>
<stop offset="0.523438" stop-color="#739DF2"/>
<stop offset="0.527344" stop-color="#739DF2"/>
<stop offset="0.53125" stop-color="#739EF2"/>
<stop offset="0.535156" stop-color="#729FF2"/>
<stop offset="0.539062" stop-color="#729FF2"/>
<stop offset="0.542969" stop-color="#72A0F1"/>
<stop offset="0.546875" stop-color="#72A0F1"/>
<stop offset="0.550781" stop-color="#72A1F1"/>
<stop offset="0.554688" stop-color="#71A1F1"/>
<stop offset="0.558594" stop-color="#71A2F1"/>
<stop offset="0.5625" stop-color="#71A2F1"/>
<stop offset="0.566406" stop-color="#71A3F1"/>
<stop offset="0.570312" stop-color="#71A4F1"/>
<stop offset="0.574219" stop-color="#70A4F1"/>
<stop offset="0.578125" stop-color="#70A5F1"/>
<stop offset="0.582031" stop-color="#70A5F0"/>
<stop offset="0.585938" stop-color="#70A6F0"/>
<stop offset="0.589844" stop-color="#70A6F0"/>
<stop offset="0.59375" stop-color="#70A7F0"/>
<stop offset="0.597656" stop-color="#6FA7F0"/>
<stop offset="0.601562" stop-color="#6FA8F0"/>
<stop offset="0.605469" stop-color="#6FA9F0"/>
<stop offset="0.609375" stop-color="#6FA9F0"/>
<stop offset="0.613281" stop-color="#6FAAF0"/>
<stop offset="0.617188" stop-color="#6EAAF0"/>
<stop offset="0.621094" stop-color="#6EABEF"/>
<stop offset="0.625" stop-color="#6EABEF"/>
<stop offset="0.628906" stop-color="#6EACEF"/>
<stop offset="0.632812" stop-color="#6EACEF"/>
<stop offset="0.636719" stop-color="#6DADEF"/>
<stop offset="0.640625" stop-color="#6DAEEF"/>
<stop offset="0.644531" stop-color="#6DAEEF"/>
<stop offset="0.648438" stop-color="#6DAFEF"/>
<stop offset="0.652344" stop-color="#6DAFEF"/>
<stop offset="0.65625" stop-color="#6DB0EF"/>
<stop offset="0.660156" stop-color="#6CB0EF"/>
<stop offset="0.664062" stop-color="#6CB1EE"/>
<stop offset="0.667969" stop-color="#6CB1EE"/>
<stop offset="0.671875" stop-color="#6CB2EE"/>
<stop offset="0.675781" stop-color="#6CB3EE"/>
<stop offset="0.679688" stop-color="#6BB3EE"/>
<stop offset="0.683594" stop-color="#6BB4EE"/>
<stop offset="0.6875" stop-color="#6BB4EE"/>
<stop offset="0.691406" stop-color="#6BB5EE"/>
<stop offset="0.695312" stop-color="#6BB5EE"/>
<stop offset="0.699219" stop-color="#6AB6EE"/>
<stop offset="0.703125" stop-color="#6AB6ED"/>
<stop offset="0.707031" stop-color="#6AB7ED"/>
<stop offset="0.710938" stop-color="#6AB8ED"/>
<stop offset="0.714844" stop-color="#6AB8ED"/>
<stop offset="0.71875" stop-color="#6AB9ED"/>
<stop offset="0.722656" stop-color="#69B9ED"/>
<stop offset="0.726562" stop-color="#69BAED"/>
<stop offset="0.730469" stop-color="#69BAED"/>
<stop offset="0.734375" stop-color="#69BBED"/>
<stop offset="0.738281" stop-color="#69BCED"/>
<stop offset="0.742188" stop-color="#68BCEC"/>
<stop offset="0.746094" stop-color="#68BDEC"/>
<stop offset="0.75" stop-color="#68BDEC"/>
<stop offset="0.753906" stop-color="#68BEEC"/>
<stop offset="0.757812" stop-color="#68BEEC"/>
<stop offset="0.761719" stop-color="#67BFEC"/>
<stop offset="0.765625" stop-color="#67BFEC"/>
<stop offset="0.769531" stop-color="#67C0EC"/>
<stop offset="0.773438" stop-color="#67C1EC"/>
<stop offset="0.777344" stop-color="#67C1EC"/>
<stop offset="0.78125" stop-color="#67C2EB"/>
<stop offset="0.785156" stop-color="#66C2EB"/>
<stop offset="0.789062" stop-color="#66C3EB"/>
<stop offset="0.792969" stop-color="#66C3EB"/>
<stop offset="0.796875" stop-color="#66C4EB"/>
<stop offset="0.800781" stop-color="#66C4EB"/>
<stop offset="0.804688" stop-color="#65C5EB"/>
<stop offset="0.808594" stop-color="#65C6EB"/>
<stop offset="0.8125" stop-color="#65C6EB"/>
<stop offset="0.816406" stop-color="#65C7EB"/>
<stop offset="0.820312" stop-color="#65C7EB"/>
<stop offset="0.824219" stop-color="#64C8EA"/>
<stop offset="0.828125" stop-color="#64C8EA"/>
<stop offset="0.832031" stop-color="#64C9EA"/>
<stop offset="0.835938" stop-color="#64C9EA"/>
<stop offset="0.839844" stop-color="#64CAEA"/>
<stop offset="0.84375" stop-color="#64CBEA"/>
<stop offset="0.847656" stop-color="#63CBEA"/>
<stop offset="0.851562" stop-color="#63CCEA"/>
<stop offset="0.855469" stop-color="#63CCEA"/>
<stop offset="0.859375" stop-color="#63CDEA"/>
<stop offset="0.863281" stop-color="#63CDE9"/>
<stop offset="0.867188" stop-color="#62CEE9"/>
<stop offset="0.871094" stop-color="#62CEE9"/>
<stop offset="0.875" stop-color="#62CFE9"/>
<stop offset="0.878906" stop-color="#62D0E9"/>
<stop offset="0.882812" stop-color="#62D0E9"/>
<stop offset="0.886719" stop-color="#61D1E9"/>
<stop offset="0.890625" stop-color="#61D1E9"/>
<stop offset="0.894531" stop-color="#61D2E9"/>
<stop offset="0.898438" stop-color="#61D2E9"/>
<stop offset="0.902344" stop-color="#61D3E8"/>
<stop offset="0.90625" stop-color="#61D3E8"/>
<stop offset="0.910156" stop-color="#60D4E8"/>
<stop offset="0.914062" stop-color="#60D5E8"/>
<stop offset="0.917969" stop-color="#60D5E8"/>
<stop offset="0.921875" stop-color="#60D6E8"/>
<stop offset="0.925781" stop-color="#60D6E8"/>
<stop offset="0.929688" stop-color="#5FD7E8"/>
<stop offset="0.933594" stop-color="#5FD7E8"/>
<stop offset="0.9375" stop-color="#5FD8E8"/>
<stop offset="0.941406" stop-color="#5FD9E7"/>
<stop offset="0.945312" stop-color="#5FD9E7"/>
<stop offset="0.949219" stop-color="#5FDAE7"/>
<stop offset="0.953125" stop-color="#5EDAE7"/>
<stop offset="0.957031" stop-color="#5EDBE7"/>
<stop offset="0.960938" stop-color="#5EDBE7"/>
<stop offset="0.964844" stop-color="#5EDCE7"/>
<stop offset="0.96875" stop-color="#5EDCE7"/>
<stop offset="0.972656" stop-color="#5DDDE7"/>
<stop offset="0.976562" stop-color="#5DDEE7"/>
<stop offset="0.980469" stop-color="#5DDEE7"/>
<stop offset="0.984375" stop-color="#5DDFE6"/>
<stop offset="0.988281" stop-color="#5DDFE6"/>
<stop offset="0.992188" stop-color="#5CE0E6"/>
<stop offset="0.996094" stop-color="#5CE0E6"/>
<stop offset="1" stop-color="#5CE1E6"/>
</linearGradient>
</defs>
</svg>
